<?xml version="1.0" standalone="no"?>
<!DOCTYPE svg PUBLIC "-//W3C//DTD SVG 1.1//EN" "http://www.w3.org/Graphics/SVG/1.1/DTD/svg11.dtd" >
<svg xmlns="http://www.w3.org/2000/svg">
<metadata>Generated by IcoMoon</metadata>
<defs>
<font id="FutureGlyphs" horiz-adv-x="1024">
<font-face units-per-em="1024" ascent="878.08" descent="-145.92" />
<missing-glyph horiz-adv-x="1024" />
<glyph unicode="&#x20;" d="" horiz-adv-x="512" />
<glyph unicode="&#xe600;" d="M512 768c-212.096 0-384-171.904-384-384s171.904-384 384-384 384 171.904 384 384-171.904 384-384 384zM512 42.667c-188.203 0-341.333 153.131-341.333 341.333 0 89.899 35.2 171.563 92.203 232.576 2.645-4.949 5.419-9.685 9.045-12.245 19.456-13.696 48.64 2.603 69.76-8.619 13.568-7.168 12.715-19.285 20.395-30.635 7.339-10.795 21.547-19.413 18.816-34.176-2.645-14.293-19.115-23.893-21.632-39.296-4.565-27.776-0.811-58.027 20.437-78.080 9.387-8.875 12.672-19.541 21.888-28.245 14.165-13.355 39.637-10.581 49.408-28.331 7.339-13.355 8.363-36.395 11.435-51.627 7.424-36.352 1.835-75.819 8.363-113.024 6.4-36.821 24.491-71.979 45.141-102.741 3.072-4.608 9.984-16.683 14.763-20.992 9.045-8.192 55.637-12.288 61.269 0.341 6.869 15.36-28.757 23.040-38.059 26.624-7.424 13.653-1.963 23.083-0.213 37.205 3.925 32.128 23.168 58.667 43.349 84.779 9.515 12.288 22.528 20.651 32.853 32.128 23.723 26.325 65.664 36.907 79.573 74.027 3.883 10.368 0.768 21.589 2.475 32.256 1.707 10.752 7.424 20.48 9.899 31.104 5.419 23.339 21.077 54.528 13.312 78.464-9.685 29.781-59.648 29.013-84.651 32.64-8.363 1.237-22.016-2.901-27.051 4.949-4.395 6.869-3.371 22.699-5.888 31.232-2.389 8.149-4.096 15.275-9.941 21.845-21.248 23.979-56.747 21.547-85.803 20.608-15.488-0.469-31.36-1.493-46.72 0.981-6.357 1.024-13.269 2.176-18.987 5.248-4.651 2.475-6.4 7.808-12.203 8.789-5.504 0.939-11.307-1.152-15.915-3.84-21.76-12.544-30.635-38.229-49.28-6.059-8.832 15.275-8.704 22.485 3.115 39.253 13.397 18.987 19.925 24.875 12.885 50.261-10.88-5.803-26.795-29.269-44.245-20.608-9.003 4.437-10.069 15.872-8.832 28.544 50.219 29.099 108.288 45.995 170.368 45.995 188.203 0 341.333-153.131 341.333-341.333s-153.131-341.333-341.333-341.333z" />
<glyph unicode="&#xe601;" d="M512 725.333c188.203 0 341.333-153.131 341.333-341.333s-153.131-341.333-341.333-341.333-341.333 153.131-341.333 341.333 153.131 341.333 341.333 341.333zM512 768c-212.096 0-384-171.904-384-384s171.904-384 384-384 384 171.904 384 384-171.904 384-384 384v0zM723.2 534.869l-60.331 60.331c-16.683 16.683-43.691 16.64-60.331 0l-240.384-240.384c-3.2-3.2-5.888-6.912-7.936-10.965l-31.147-91.477c-8.277-16.427-5.077-36.352 7.936-49.365s32.939-16.213 49.365-7.936l91.477 31.147c4.053 2.048 7.765 4.736 10.965 7.936l240.384 240.384c16.64 16.64 16.64 43.648 0 60.331zM406.187 248.491l-29.696 29.696 15.275 44.885c1.109-1.024 2.219-2.005 3.2-3.029 16-16 20.352-32.683 20.352-32.683s16.683-4.352 32.683-20.352c1.024-1.024 2.048-2.091 3.029-3.2l-44.843-15.317zM481.707 293.376c-1.195 1.28-2.347 2.56-3.541 3.755-10.539 10.539-21.333 17.749-30.421 22.613-4.864 9.088-12.075 19.883-22.613 30.421-1.195 1.195-2.475 2.347-3.755 3.541l120.789 120.789 60.331-60.331-120.789-120.789zM632.661 444.331l-60.331 60.331 29.995 29.995 60.331-60.331-29.995-29.995z" />
<glyph unicode="&#xe602;" d="M853.333 768h-682.667c-23.552 0-42.667-19.115-42.667-42.667v-682.667c0-23.552 19.115-42.667 42.667-42.667h682.667c23.552 0 42.667 19.115 42.667 42.667v682.667c0 23.552-19.115 42.667-42.667 42.667zM853.333 64c0-11.776-9.557-21.333-21.333-21.333h-640c-11.776 0-21.333 9.557-21.333 21.333v640c0 11.776 9.557 21.333 21.333 21.333h640c11.776 0 21.333-9.557 21.333-21.333v-640zM512 624.981c-132.864 0-240.981-108.117-240.981-240.981s108.117-240.981 240.981-240.981 240.981 108.117 240.981 240.981-108.117 240.981-240.981 240.981zM368 519.552c1.963-3.712 3.925-7.552 6.656-9.472 11.136-7.851 27.819 1.493 39.936-4.949 7.723-4.096 7.253-11.051 11.648-17.536 4.181-6.187 12.331-11.093 10.752-19.541-1.493-8.192-10.923-13.653-12.373-22.443-2.603-15.872-0.469-33.195 11.691-44.672 5.376-5.077 7.253-11.179 12.544-16.171 8.107-7.637 22.699-6.059 28.288-16.213 4.181-7.637 4.779-20.821 6.571-29.568 4.267-20.779 1.067-43.392 4.779-64.683 3.669-21.077 13.995-41.173 25.813-58.795 1.749-2.645 5.717-9.515 8.448-11.989 5.163-4.693 31.829-7.040 35.072 0.213 3.925 8.789-16.469 13.184-21.76 15.232-4.267 7.808-1.109 13.184-0.128 21.291 2.261 18.389 13.269 33.579 24.789 48.512 5.461 7.040 12.885 11.819 18.816 18.389 13.568 15.061 37.589 21.12 45.525 42.368 2.219 5.931 0.427 12.331 1.408 18.432 0.981 6.144 4.224 11.691 5.675 17.792 3.115 13.355 12.075 31.189 7.637 44.885-5.547 17.024-34.133 16.597-48.427 18.688-4.779 0.683-12.587-1.664-15.488 2.859-2.517 3.925-1.92 12.971-3.371 17.877-1.365 4.651-2.347 8.747-5.675 12.501-12.16 13.739-32.469 12.331-49.109 11.819-8.875-0.256-17.92-0.853-26.752 0.555-3.627 0.597-7.595 1.237-10.88 2.987-2.688 1.408-3.669 4.48-6.955 5.035-3.157 0.555-6.485-0.683-9.088-2.176-12.459-7.168-17.536-21.888-28.203-3.456-5.077 8.704-4.992 12.843 1.792 22.443 7.68 10.88 11.392 14.251 7.381 28.757-6.229-3.328-15.317-16.725-25.301-11.776-5.845 2.901-5.931 10.837-4.736 19.2 28.715 16.256 61.568 26.368 97.024 26.368 109.355 0 198.315-88.96 198.315-198.315s-88.96-198.315-198.315-198.315-198.315 88.96-198.315 198.315c0 52.523 20.864 100.011 54.315 135.552z" />
<glyph unicode="&#xe603;" d="M216.491 495.232v-471.211c0-7.083 5.717-12.8 12.8-12.8h213.504c7.083 0 12.8 5.717 12.8 12.8v183.723c0 7.083 5.717 12.8 12.8 12.8h85.504c7.083 0 12.8-5.717 12.8-12.8v-183.723c0-7.083 5.717-12.8 12.8-12.8h213.504c7.083 0 12.8 5.717 12.8 12.8v471.211c0 4.864-2.731 9.301-7.083 11.477l-281.856 140.075c-3.584 1.792-7.808 1.792-11.392 0l-281.856-140.117c-4.352-2.133-7.125-6.571-7.125-11.435zM750.336 53.888h-128.171c-7.083 0-12.8 5.717-12.8 12.8v153.856c0 23.552-19.115 42.667-42.667 42.667h-111.104c-23.552 0-42.667-19.115-42.667-42.667v-153.856c0-7.083-5.717-12.8-12.8-12.8h-128.171c-7.083 0-12.8 5.717-12.8 12.8v402.091c0 4.864 2.731 9.301 7.083 11.477l239.189 118.869c3.584 1.792 7.808 1.792 11.392 0l239.189-118.869c4.352-2.176 7.083-6.613 7.083-11.477v-402.091c0.043-7.083-5.717-12.8-12.757-12.8zM880.853 563.627l-359.723 190.677c-6.272 3.328-13.824 3.328-20.053-0.043l-105.643-56.405v9.984c0 11.776-9.557 21.333-21.333 21.333h-112.555c-11.776 0-21.333-9.557-21.333-21.333v-91.904l-97.237-52.779c-10.368-5.632-14.208-18.56-8.576-28.928 3.883-7.125 11.221-11.136 18.731-11.136 3.456 0 6.955 0.853 10.155 2.603l108.459 58.837c6.869 3.712 11.136 10.923 11.136 18.731v83.243h69.888v-24.235c0-7.509 3.925-14.421 10.368-18.304s14.464-4.011 20.992-0.469l127.061 67.797 349.653-185.344c10.411-5.504 23.296-1.579 28.843 8.875s1.579 23.296-8.832 28.8zM682.539 424.533c-0.299 23.296-19.2 42.112-42.539 42.112h-111.104c-23.381 0-42.24-18.816-42.539-42.112h-0.128v-56.576h0.128c0.299-23.296 19.2-42.112 42.539-42.112h111.104c23.381 0 42.24 18.816 42.539 42.112h0.128v56.576h-0.128zM627.2 368.555h-85.504c-7.083 0-12.8 5.717-12.8 12.8v29.867c0 7.083 5.717 12.8 12.8 12.8h85.504c7.083 0 12.8-5.717 12.8-12.8v-29.867c0-7.083-5.717-12.8-12.8-12.8z" />
<glyph unicode="&#xe604;" d="M853.333 768h-682.667c-23.552 0-42.667-19.115-42.667-42.667v-682.667c0-23.552 19.115-42.667 42.667-42.667h682.667c23.552 0 42.667 19.115 42.667 42.667v682.667c0 23.552-19.115 42.667-42.667 42.667zM853.333 64c0-11.776-9.557-21.333-21.333-21.333h-640c-11.776 0-21.333 9.557-21.333 21.333v640c0 11.776 9.557 21.333 21.333 21.333h640c11.776 0 21.333-9.557 21.333-21.333v-640zM702.677 533.333h-381.355c-11.776 0-21.333 9.557-21.333 21.333s9.557 21.333 21.333 21.333h381.355c11.776 0 21.333-9.557 21.333-21.333s-9.557-21.333-21.333-21.333zM702.677 362.667h-381.355c-11.776 0-21.333 9.557-21.333 21.333s9.557 21.333 21.333 21.333h381.355c11.776 0 21.333-9.557 21.333-21.333s-9.557-21.333-21.333-21.333zM702.677 192h-381.355c-11.776 0-21.333 9.557-21.333 21.333s9.557 21.333 21.333 21.333h381.355c11.776 0 21.333-9.557 21.333-21.333s-9.557-21.333-21.333-21.333z" />
<glyph unicode="&#xe605;" d="M128.725 608.853h326.357v-55.125h-266.965v-136.533h246.741v-52.053h-246.741v-152.448h271.531v-53.589h-330.923v449.749zM541.099 608.853h71.765l224.256-363.349v363.349h58.155v-449.707h-68.437l-227.584 362.923v-362.923h-58.155v449.707z" />
<glyph unicode="&#xe606;" d="M139.051 610.219h326.955v-55.211h-267.477v-136.789h247.211v-52.139h-247.211v-152.747h272.043v-53.675h-331.52v450.56zM592.043 305.024c1.365-25.557 7.168-46.293 17.408-62.251 19.499-29.867 53.888-44.8 103.125-44.8 22.059 0 42.155 3.243 60.288 9.813 35.072 12.672 52.608 35.371 52.608 68.096 0 24.533-7.424 42.027-22.272 52.437-15.061 10.24-38.656 19.115-70.741 26.667l-59.136 13.781c-38.613 9.003-65.963 18.901-82.005 29.739-27.733 18.816-41.6 46.933-41.6 84.352 0 40.491 13.611 73.728 40.875 99.669s65.877 38.955 115.797 38.955c45.952 0 85.035-11.392 117.163-34.219s48.213-59.221 48.213-109.355h-57.344c-2.944 24.107-9.216 42.624-18.816 55.509-17.835 23.509-48.128 35.285-90.88 35.285-34.517 0-59.307-7.552-74.411-22.699s-22.656-32.683-22.656-52.736c0-22.101 8.917-38.229 26.752-48.469 11.691-6.571 38.144-14.72 79.36-24.533l61.227-14.421c29.525-6.955 52.309-16.427 68.352-28.544 27.733-21.035 41.6-51.627 41.6-91.691 0-49.877-17.707-85.589-53.12-107.051-35.371-21.461-76.544-32.213-123.392-32.213-54.656 0-97.408 14.293-128.341 42.923-30.933 28.416-46.080 66.987-45.483 115.627h57.429z" />
<glyph unicode="&#xe607;" d="M142.421 608.811h201.173c39.765 0 71.893-11.307 96.341-33.835s36.693-54.229 36.693-95.019c0-35.072-10.923-65.664-32.725-91.648-21.845-26.027-55.211-39.040-100.181-39.040h-140.373v-190.080h-60.928v449.621zM378.667 546.987c-13.355 6.315-31.701 9.472-54.997 9.472h-120.32v-155.776h120.32c27.179 0 49.195 5.803 66.091 17.451s25.344 32.128 25.344 61.525c0.043 33.024-12.117 55.509-36.437 67.328zM881.579 608.811v-53.547h-151.509v-396.032h-61.525v395.989h-151.509v53.589h364.544z" />
<glyph unicode="&#xe608;" d="M916.651 716.8c-4.181 0-8.789-0.939-13.611-2.944l-249.429-103.125-285.099 112.768-247.552-107.989c-19.712-8.576-35.669-31.531-35.669-51.2v-494.891c0-14.635 8.832-23.339 21.419-23.339 4.352 0 9.173 1.067 14.251 3.243l247.552 107.989 285.099-112.768 249.429 103.125c19.712 8.149 35.669 30.72 35.669 50.432v494.805c0 14.891-9.131 23.893-22.059 23.893zM390.699 668.843l241.749-95.616v-474.453l-241.749 95.616v474.453zM127.957 563.84c0.427 3.285 5.504 10.581 10.069 12.544l210.005 91.605v-473.131l-220.075-96v464.981zM886.741 187.051l-211.627-87.467v473.856l220.928 91.307 0.043-466.261c-0.512-3.328-5.419-9.813-9.344-11.435z" />
<glyph unicode="&#xe609;" d="M542.165 384l219.051 219.051c8.32 8.32 8.32 21.845 0 30.165s-21.845 8.32-30.165 0l-219.051-219.051-219.051 219.051c-8.32 8.32-21.845 8.32-30.165 0s-8.32-21.845 0-30.165l219.051-219.051-219.051-219.051c-8.32-8.32-8.32-21.845 0-30.165 4.181-4.181 9.643-6.229 15.104-6.229s10.923 2.091 15.104 6.229l219.008 219.051 219.051-219.051c4.181-4.181 9.643-6.229 15.104-6.229s10.923 2.091 15.104 6.229c8.32 8.32 8.32 21.845 0 30.165l-219.093 219.051z" />
<glyph unicode="&#xe60a;" d="M746.411 405.333h-214.144v214.101c0 11.776-9.557 21.333-21.333 21.333s-21.333-9.557-21.333-21.333v-214.101h-214.101c-11.776 0-21.333-9.557-21.333-21.333s9.557-21.333 21.333-21.333h214.144v-214.101c0-11.776 9.557-21.333 21.333-21.333s21.333 9.557 21.333 21.333v214.101h214.144c11.776 0 21.333 9.557 21.333 21.333s-9.557 21.333-21.376 21.333z" />
<glyph unicode="&#xe60b;" d="M747.477 362.667h-470.955c-11.776 0-21.333 9.557-21.333 21.333s9.557 21.333 21.333 21.333h470.912c11.776 0 21.333-9.557 21.333-21.333s-9.515-21.333-21.291-21.333z" />
<glyph unicode="&#xe60c;" d="M847.829 399.829c-11.776 0-21.333-9.557-21.333-21.333v-303.403c0-9.131-7.467-16.597-16.597-16.597h-606.805c-9.131 0-16.597 7.424-16.597 16.597v606.848c0 9.131 7.467 16.597 16.597 16.597h303.403c11.776 0 21.333 9.557 21.333 21.333s-9.557 21.333-21.333 21.333h-303.403c-32.683 0-59.264-26.581-59.264-59.264v-606.848c0-32.683 26.581-59.264 59.264-59.264h606.848c32.683 0 59.264 26.581 59.264 59.264v303.403c-0.043 11.819-9.557 21.333-21.376 21.333zM862.933 752.171c-1.835 0-3.755-0.299-5.632-0.939l-263.552-89.728c-12.117-4.139-15.701-19.499-6.656-28.544l71.893-71.893-167.083-167.296c-8.32-8.32-8.32-21.845 0-30.165 4.181-4.181 9.643-6.229 15.104-6.229s10.923 2.091 15.104 6.229l167.083 167.296 71.765-71.765c3.456-3.456 7.808-5.077 12.16-5.077 6.997 0 13.867 4.224 16.384 11.691l89.728 263.552c3.925 11.648-5.077 22.869-16.299 22.869z" />
<glyph unicode="&#xe60d;" d="M742.699 491.861l-213.333 298.667c-8.021 11.221-26.752 11.221-34.731 0l-213.333-298.667c-6.827-9.6-4.608-22.912 4.949-29.739 9.643-6.827 22.912-4.651 29.781 4.949l174.635 244.48v-721.877c0-11.776 9.557-21.333 21.333-21.333s21.333 9.557 21.333 21.333v721.92l174.635-244.48c4.181-5.845 10.752-8.917 17.365-8.917 4.309 0 8.619 1.28 12.416 3.968 9.6 6.784 11.776 20.139 4.949 29.696z" />
<glyph unicode="&#xe60e;" d="M620.203 152.96l298.667 213.333c11.221 8.021 11.221 26.752 0 34.731l-298.667 213.333c-9.6 6.827-22.912 4.608-29.739-4.949-6.827-9.643-4.651-22.912 4.949-29.781l244.48-174.635h-721.835c-11.776 0-21.333-9.557-21.333-21.333s9.557-21.333 21.333-21.333h721.877l-244.48-174.635c-5.845-4.181-8.917-10.752-8.917-17.365 0-4.309 1.28-8.619 3.968-12.416 6.784-9.557 20.139-11.776 29.696-4.949z" />
<glyph unicode="&#xe60f;" d="M742.528 275.456l-213.333-298.667c-8.021-11.221-26.752-11.221-34.731 0l-213.333 298.667c-6.827 9.6-4.608 22.912 4.949 29.739 9.643 6.827 22.912 4.651 29.781-4.949l174.635-244.48v721.835c0 11.776 9.557 21.333 21.333 21.333s21.333-9.557 21.333-21.333v-721.877l174.635 244.48c4.181 5.845 10.752 8.917 17.365 8.917 4.309 0 8.619-1.28 12.416-3.968 9.6-6.784 11.776-20.096 4.949-29.696z" />
<glyph unicode="&#xe610;" d="M403.797 614.357l-298.667-213.333c-11.221-8.021-11.221-26.752 0-34.731l298.667-213.333c9.6-6.827 22.912-4.608 29.739 4.949 6.827 9.643 4.651 22.912-4.949 29.781l-244.48 174.635h721.877c11.776 0 21.333 9.557 21.333 21.333s-9.557 21.333-21.333 21.333h-721.877l244.48 174.635c5.845 4.181 8.917 10.752 8.917 17.365 0 4.309-1.28 8.619-3.968 12.416-6.827 9.6-20.181 11.819-29.739 4.949z" />
<glyph unicode="&#xe611;" d="M617.643-31.616c-129.579 0-235.008 105.429-235.008 235.008v508.203l-174.635-244.48c-6.869-9.6-20.181-11.776-29.781-4.949s-11.776 20.181-4.949 29.739l213.333 298.667c8.021 11.221 26.752 11.221 34.731 0l213.333-298.667c6.827-9.6 4.608-22.912-4.949-29.739-3.797-2.688-8.107-3.968-12.416-3.968-6.613 0-13.227 3.115-17.365 8.917l-174.635 244.48v-508.203c0-106.069 86.272-192.341 192.341-192.341s192.341 86.272 192.341 192.341v171.136c0 11.776 9.557 21.333 21.333 21.333s21.333-9.557 21.333-21.333v-171.136c-0.043-129.579-105.429-235.008-235.008-235.008z" />
<glyph unicode="&#xe612;" d="M70.4 276.992c0 129.579 105.387 235.008 235.008 235.008h508.203l-244.48 174.635c-9.6 6.869-11.776 20.181-4.949 29.781s20.181 11.776 29.739 4.949l298.667-213.333c11.221-8.021 11.221-26.752 0-34.731l-298.667-213.333c-9.6-6.827-22.912-4.608-29.739 4.949-2.688 3.797-3.968 8.107-3.968 12.416 0 6.613 3.115 13.227 8.917 17.365l244.437 174.635h-508.16c-106.069 0-192.341-86.272-192.341-192.341s86.272-192.341 192.341-192.341h171.136c11.776 0 21.333-9.557 21.333-21.333s-9.557-21.333-21.333-21.333h-171.136c-129.621 0-235.008 105.429-235.008 235.008z" />
<glyph unicode="&#xe613;" d="M900.949 490.325c0-129.579-105.429-235.008-235.008-235.008h-508.203l244.48-174.635c9.6-6.869 11.776-20.181 4.949-29.781s-20.181-11.776-29.739-4.949l-298.667 213.333c-11.221 8.021-11.221 26.752 0 34.731l298.667 213.333c9.6 6.869 22.955 4.651 29.781-4.907 2.688-3.797 3.968-8.107 3.968-12.416 0-6.613-3.115-13.227-8.917-17.365l-244.48-174.635h508.203c106.069 0 192.341 86.272 192.341 192.341s-86.315 192.299-192.341 192.299h-171.136c-11.776 0-21.333 9.557-21.333 21.333s9.557 21.333 21.333 21.333h171.136c129.579 0 234.965-105.429 234.965-235.008z" />
<glyph unicode="&#xe614;" d="M420.437-31.957c129.579 0 235.008 105.429 235.008 235.008v508.203l174.635-244.48c6.869-9.6 20.181-11.776 29.781-4.949s11.776 20.181 4.949 29.739l-213.333 298.667c-8.021 11.221-26.752 11.221-34.731 0l-213.333-298.667c-6.827-9.6-4.608-22.912 4.949-29.739 3.797-2.688 8.107-3.968 12.416-3.968 6.613 0 13.227 3.115 17.365 8.917l174.635 244.48v-508.203c0-106.069-86.272-192.341-192.341-192.341s-192.341 86.272-192.341 192.341v171.136c0 11.776-9.557 21.333-21.333 21.333s-21.333-9.557-21.333-21.333v-171.136c0-129.579 105.387-235.008 235.008-235.008z" />
<glyph unicode="&#xe615;" d="M405.333 798.635c129.579 0 235.008-105.429 235.008-235.008v-508.203l174.635 244.48c6.869 9.6 20.181 11.776 29.781 4.949s11.776-20.181 4.949-29.739l-213.333-298.667c-8.021-11.221-26.752-11.221-34.731 0l-213.333 298.667c-6.827 9.6-4.608 22.912 4.949 29.739 3.797 2.688 8.107 3.968 12.416 3.968 6.613 0 13.227-3.115 17.365-8.917l174.635-244.48v508.203c0 106.069-86.272 192.341-192.341 192.341s-192.341-86.272-192.341-192.341v-171.136c0-11.776-9.557-21.333-21.333-21.333s-21.333 9.557-21.333 21.333v171.136c0 129.579 105.429 235.008 235.008 235.008z" />
<glyph unicode="&#xe616;" d="M96.725 489.984c0-129.579 105.429-235.008 235.008-235.008h508.203l-244.48-174.635c-9.6-6.869-11.776-20.181-4.949-29.781s20.181-11.776 29.739-4.949l298.667 213.333c11.221 8.021 11.221 26.752 0 34.731l-298.667 213.333c-9.6 6.827-22.912 4.608-29.739-4.949-2.688-3.797-3.968-8.107-3.968-12.416 0-6.613 3.115-13.227 8.917-17.365l244.48-174.635h-508.203c-106.069 0-192.341 86.272-192.341 192.341s86.272 192.341 192.341 192.341h171.136c11.776 0 21.333 9.557 21.333 21.333s-9.557 21.333-21.333 21.333h-171.136c-129.621 0-235.008-105.429-235.008-235.008z" />
<glyph unicode="&#xe617;" d="M927.275 276.651c0 129.579-105.429 235.008-235.008 235.008h-508.203l244.48 174.635c9.6 6.869 11.776 20.181 4.949 29.781s-20.181 11.776-29.739 4.949l-298.667-213.333c-11.221-8.021-11.221-26.752 0-34.731l298.667-213.333c9.6-6.827 22.912-4.608 29.739 4.949 2.688 3.797 3.968 8.107 3.968 12.416 0 6.613-3.115 13.227-8.917 17.365l-244.48 174.635h508.203c106.069 0 192.341-86.272 192.341-192.341s-86.272-192.341-192.341-192.341h-171.136c-11.776 0-21.333-9.557-21.333-21.333s9.557-21.333 21.333-21.333h171.136c129.621 0.043 235.008 105.429 235.008 235.008z" />
<glyph unicode="&#xe618;" d="M618.667 798.635c-129.579 0-235.008-105.429-235.008-235.008v-508.203l-174.592 244.48c-6.869 9.6-20.181 11.776-29.781 4.949s-11.776-20.181-4.949-29.739l213.333-298.667c8.021-11.221 26.752-11.221 34.731 0l213.333 298.667c6.827 9.6 4.608 22.912-4.949 29.739-3.797 2.688-8.107 3.968-12.416 3.968-6.613 0-13.227-3.115-17.365-8.917l-174.635-244.48v508.203c0 106.069 86.272 192.341 192.341 192.341s192.341-86.272 192.341-192.341v-171.136c0-11.776 9.557-21.333 21.333-21.333s21.333 9.557 21.333 21.333v171.136c-0.043 129.579-105.472 235.008-235.051 235.008z" />
<glyph unicode="&#xe619;" d="M751.659 296.704l60.331 362.027c2.261 13.568-11.008 26.837-24.576 24.576l-362.027-60.331c-11.605-1.92-19.499-12.928-17.536-24.533 2.005-11.605 12.928-19.499 24.576-17.579l296.363 49.408-510.421-510.421c-8.32-8.32-8.32-21.845 0-30.165s21.845-8.32 30.165 0l510.421 510.421-49.408-296.363c-1.195-7.083 1.28-13.909 5.973-18.603 3.029-3.029 6.997-5.205 11.605-5.973 11.605-1.92 22.571 5.931 24.533 17.536z" />
<glyph unicode="&#xe61a;" d="M598.613 622.976l-362.027 60.331c-13.611 2.304-26.837-10.965-24.576-24.533l60.331-362.027c1.963-11.605 12.928-19.456 24.533-17.536 11.605 2.005 19.499 12.928 17.579 24.576l-49.408 296.32 510.421-510.421c8.32-8.32 21.845-8.32 30.165 0s8.32 21.845 0 30.165l-510.421 510.421 296.363-49.408c7.083-1.195 13.909 1.28 18.603 5.973 3.029 3.029 5.205 6.997 5.973 11.605 1.963 11.605-5.931 22.613-17.536 24.533z" />
<glyph unicode="&#xe61b;" d="M425.216 143.659l362.027-60.331c13.568-2.261 26.837 11.008 24.576 24.576l-60.331 362.027c-1.963 11.605-12.928 19.456-24.533 17.536-11.605-2.005-19.499-12.928-17.579-24.576l49.408-296.363-510.421 510.464c-8.32 8.32-21.845 8.32-30.165 0s-8.32-21.845 0-30.165l510.421-510.421-296.363 49.408c-7.083 1.195-13.909-1.28-18.603-5.973-3.029-3.029-5.205-6.997-5.973-11.605-1.963-11.605 5.931-22.613 17.536-24.576z" />
<glyph unicode="&#xe61c;" d="M272.341 469.931l-60.331-362.027c-2.261-13.568 11.008-26.837 24.576-24.576l362.027 60.331c11.605 1.963 19.456 12.928 17.536 24.533-2.005 11.605-12.928 19.499-24.576 17.579l-296.363-49.408 510.421 510.464c8.32 8.32 8.32 21.845 0 30.165s-21.845 8.32-30.165 0l-510.421-510.421 49.408 296.363c1.195 7.083-1.28 13.909-5.973 18.603-3.029 3.029-6.997 5.205-11.605 5.973-11.605 1.92-22.571-5.931-24.533-17.579z" />
<glyph unicode="&#xe61d;" d="M742.699 434.389l-213.333-298.667c-8.021-11.221-26.752-11.221-34.731 0l-213.333 298.667c-6.827 9.6-4.608 22.912 4.949 29.739 9.643 6.827 22.912 4.651 29.781-4.949l174.635-244.48v531.285c0 11.776 9.557 21.333 21.333 21.333s21.333-9.557 21.333-21.333v-531.285l174.635 244.48c4.181 5.845 10.752 8.917 17.365 8.917 4.309 0 8.619-1.28 12.416-3.968 9.6-6.784 11.776-20.139 4.949-29.739zM874.667 41.984h-727.424c-11.776 0-21.333-9.557-21.333-21.333s9.557-21.333 21.333-21.333h727.424c11.776 0 21.333 9.557 21.333 21.333s-9.557 21.333-21.333 21.333z" />
<glyph unicode="&#xe61e;" d="M743.765 460.245l-213.333 298.667c-8.021 11.221-26.752 11.221-34.731 0l-213.333-298.667c-6.827-9.6-4.608-22.912 4.949-29.739 9.643-6.827 22.912-4.651 29.781 4.949l174.635 244.48v-531.285c0-11.776 9.557-21.333 21.333-21.333s21.333 9.557 21.333 21.333v531.328l174.635-244.48c4.181-5.845 10.752-8.917 17.365-8.917 4.309 0 8.619 1.28 12.416 3.968 9.557 6.784 11.776 20.139 4.949 29.696zM875.691 41.984h-727.381c-11.776 0-21.333-9.557-21.333-21.333s9.557-21.333 21.333-21.333h727.424c11.776 0 21.333 9.557 21.333 21.333s-9.557 21.333-21.376 21.333z" />
<glyph unicode="&#xe61f;" d="M889.216 760.875v0c-4.736 4.608-11.307 7.339-18.048 6.229l-258.389-43.051c-11.605-1.963-19.456-12.928-17.536-24.533 2.005-11.605 12.928-19.499 24.576-17.579l192.725 32.128-245.376-245.376c-8.277-8.277-8.277-21.632-0.128-29.952v0c8.363-8.149 21.675-8.149 29.952 0.128l245.376 245.376-32.128-192.768c-1.92-11.648 5.931-22.571 17.579-24.576 11.605-1.92 22.613 5.931 24.533 17.536l43.051 258.389c1.152 6.699-1.579 13.312-6.187 18.048zM134.784 5.803v0c4.736-4.608 11.307-7.339 18.048-6.229l258.389 43.093c11.605 1.963 19.456 12.928 17.536 24.533-2.005 11.605-12.928 19.499-24.576 17.579l-192.725-32.128 245.376 245.376c8.277 8.277 8.277 21.632 0.128 29.952v0c-8.363 8.149-21.675 8.149-29.952-0.128l-245.376-245.376 32.128 192.725c1.92 11.648-5.931 22.571-17.579 24.576-11.605 1.92-22.613-5.931-24.533-17.536l-43.051-258.389c-1.152-6.741 1.579-13.312 6.187-18.048z" />
<glyph unicode="&#xe620;" d="M567.381 438.741v0c-4.608 4.736-7.339 11.307-6.229 18.048l43.051 258.389c1.963 11.605 12.928 19.456 24.533 17.536 11.605-2.005 19.499-12.928 17.579-24.576l-32.085-192.725 245.376 245.376c8.277 8.277 21.632 8.277 29.952 0.128v0c8.149-8.363 8.149-21.675-0.128-29.952l-245.376-245.419 192.725 32.128c11.648 1.92 22.571-5.931 24.576-17.579 1.92-11.605-5.931-22.613-17.536-24.533l-258.389-43.051c-6.699-1.109-13.312 1.579-18.048 6.229zM456.619 327.253v0c4.608-4.736 7.339-11.307 6.229-18.048l-43.051-258.389c-1.963-11.605-12.928-19.456-24.533-17.536-11.605 2.005-19.499 12.928-17.579 24.576l32.128 192.725-245.376-245.376c-8.277-8.277-21.632-8.277-29.952-0.128v0c-8.149 8.363-8.149 21.675 0.128 29.952l245.376 245.376-192.768-32.085c-11.648-1.92-22.571 5.931-24.576 17.579-1.92 11.605 5.931 22.613 17.536 24.533l258.389 43.051c6.699 1.109 13.312-1.579 18.048-6.229z" />
<glyph unicode="&#xe621;" d="M628.011 657.664c-10.539 5.205-23.339 0.981-28.629-9.557-5.248-10.539-0.981-23.339 9.557-28.629 130.645-65.323 183.765-224.725 118.443-355.371-41.813-83.627-123.349-137.387-215.765-144.725l44.715 40.064c8.533 8.107 8.917 21.589 0.853 30.165-8.064 8.533-21.589 8.917-30.165 0.853l-84.395-77.525c-4.267-4.053-6.4-9.771-6.4-15.488s2.133-11.477 6.4-15.488l84.395-77.525c8.576-8.064 22.059-7.723 30.165 0.853 8.064 8.576 7.68 22.059-0.853 30.165l-45.397 40.704v0.555c109.013 7.211 205.525 70.016 254.677 168.405 75.776 151.595 14.080 336.683-137.6 412.544zM372.011 145.664c-130.645 65.323-183.765 224.725-118.443 355.371 44.672 89.301 134.571 145.28 234.709 146.219l-45.397-40.747c-8.533-8.107-8.917-21.589-0.853-30.165 8.064-8.533 21.589-8.917 30.165-0.853l84.395 77.525c4.267 4.053 6.4 9.771 6.4 15.488s-2.133 11.477-6.4 15.488l-84.395 77.611c-8.576 8.064-22.059 7.723-30.165-0.853-8.064-8.576-7.68-22.059 0.853-30.165l45.397-40.704c-116.437-0.896-221.013-65.963-272.896-169.813-75.819-151.68-14.123-336.768 137.557-412.587 3.072-1.536 6.315-2.261 9.557-2.261 7.808 0 15.317 4.309 19.072 11.776 5.248 10.581 0.981 23.381-9.557 28.672z" />
<glyph unicode="&#xe622;" d="M370.517 5.205c-0.128 0-0.213 0-0.341 0-7.040 0.085-13.568 3.669-17.451 9.557l-221.44 334.677c-6.485 9.813-3.797 23.083 6.016 29.568s22.997 3.84 29.568-6.016l204.245-308.651 486.443 689.451c6.741 9.685 20.096 11.861 29.696 5.163 9.643-6.784 11.904-20.096 5.12-29.739l-504.448-714.965c-4.011-5.675-10.496-9.045-17.408-9.045z" />
<glyph unicode="&#xe623;" d="M916.352 682.667h-808.704c-11.776 0-21.333 9.557-21.333 21.333s9.557 21.333 21.333 21.333h808.661c11.776 0 21.333-9.557 21.333-21.333s-9.515-21.333-21.291-21.333zM916.352 360.661h-808.704c-11.776 0-21.333 9.557-21.333 21.333s9.557 21.333 21.333 21.333h808.661c11.776 0 21.333-9.557 21.333-21.333s-9.515-21.333-21.291-21.333zM916.352 42.667h-808.704c-11.776 0-21.333 9.557-21.333 21.333s9.557 21.333 21.333 21.333h808.661c11.776 0 21.333-9.557 21.333-21.333s-9.515-21.333-21.291-21.333z" />
<glyph unicode="&#xe624;" d="M680.405 494.635l-149.547 303.957c-6.613 13.44-24.021 15.317-33.664 5.675-1.579-1.579-2.944-3.456-4.053-5.675l-149.547-303.957c-6.869-13.952 3.285-30.293 18.859-30.293h128.043v-486.016c0-11.776 9.557-21.333 21.333-21.333s21.333 9.557 21.333 21.333v486.016h128.427c5.931 0 11.093 2.389 14.805 6.101 6.016 6.016 8.277 15.573 4.011 24.192z" />
<glyph unicode="&#xe625;" d="M622.976 215.253l303.957 149.547c13.44 6.613 15.317 24.021 5.675 33.664-1.579 1.579-3.456 2.944-5.675 4.053l-303.957 149.547c-13.952 6.869-30.293-3.285-30.293-18.859v-128.043h-486.016c-11.776 0-21.333-9.557-21.333-21.333s9.557-21.333 21.333-21.333h486.016v-128.427c0-5.931 2.389-11.093 6.101-14.805 6.016-6.016 15.573-8.277 24.192-4.011z" />
<glyph unicode="&#xe626;" d="M343.595 272.683l149.547-303.957c6.613-13.44 24.021-15.317 33.664-5.675 1.579 1.579 2.944 3.456 4.053 5.675l149.547 303.957c6.869 13.952-3.285 30.293-18.859 30.293h-128.043v486.016c0 11.776-9.557 21.333-21.333 21.333s-21.333-9.557-21.333-21.333v-486.016h-128.427c-5.931 0-11.093-2.389-14.805-6.101-6.016-6.016-8.277-15.573-4.011-24.192z" />
<glyph unicode="&#xe627;" d="M401.024 552.064l-303.957-149.547c-13.44-6.613-15.317-24.021-5.675-33.664 1.579-1.579 3.456-2.944 5.675-4.053l303.957-149.547c13.952-6.869 30.293 3.285 30.293 18.859v128.043h486.016c11.776 0 21.333 9.557 21.333 21.333s-9.557 21.333-21.333 21.333h-486.016v128.427c0 5.931-2.389 11.093-6.101 14.805-6.016 6.016-15.573 8.277-24.192 4.011z" />
<glyph unicode="&#xe628;" d="M493.099 138.411c6.613-13.44 24.021-15.317 33.664-5.675 1.579 1.579 2.944 3.499 4.053 5.675l149.547 303.957c6.869 13.952-3.285 30.293-18.859 30.293h-128.043v272.512c0 11.776-9.557 21.333-21.333 21.333s-21.333-9.557-21.333-21.333v-272.512h-128.427c-5.931 0-11.093-2.389-14.805-6.101-6.016-6.016-8.277-15.573-4.053-24.192l149.589-303.957zM875.691 43.52h-727.381c-11.776 0-21.333-9.557-21.333-21.333s9.557-21.333 21.333-21.333h727.424c11.776 0 21.333 9.557 21.333 21.333s-9.557 21.333-21.376 21.333z" />
<glyph unicode="&#xe629;" d="M533.333 379.691v341.76l156.245-218.795c4.181-5.845 10.752-8.917 17.365-8.917 4.309 0 8.619 1.28 12.416 3.968 9.6 6.827 11.776 20.181 4.949 29.739l-194.987 272.939c-3.968 5.632-10.624 8.448-17.323 8.448s-13.355-2.816-17.365-8.405l-194.987-272.939c-6.827-9.6-4.608-22.912 4.949-29.739 3.797-2.731 8.149-4.011 12.416-4.011 6.613 0 13.227 3.115 17.365 8.917l156.288 218.795v-341.76c-107.093-10.837-191.019-100.224-191.019-210.176 0-117.291 95.061-212.352 212.352-212.352s212.352 95.061 212.352 212.352c0 109.952-83.925 199.339-191.019 210.176zM512-0.171c-93.568 0-169.685 76.117-169.685 169.685s76.117 169.685 169.685 169.685 169.685-76.117 169.685-169.685c0-93.568-76.117-169.685-169.685-169.685z" />
<glyph unicode="&#xe62a;" d="M508.715 361.685h341.76l-218.795-156.245c-5.845-4.181-8.917-10.752-8.917-17.365 0-4.309 1.28-8.619 3.968-12.416 6.827-9.6 20.181-11.776 29.739-4.949l272.939 194.987c5.589 4.011 8.405 10.667 8.405 17.365s-2.816 13.355-8.405 17.365l-272.939 194.987c-9.6 6.827-22.912 4.608-29.739-4.949-2.688-3.797-3.968-8.107-3.968-12.416 0-6.613 3.115-13.227 8.917-17.365l218.795-156.245h-341.76c-10.837 107.093-100.224 191.019-210.176 191.019-117.291 0-212.352-95.061-212.352-212.352s95.061-212.437 212.309-212.437c109.995 0 199.339 83.883 210.219 191.019zM128.853 383.019c0 93.568 76.117 169.685 169.685 169.685s169.685-76.117 169.685-169.685-76.16-169.685-169.728-169.685c-93.568 0-169.643 76.117-169.643 169.685z" />
<glyph unicode="&#xe62b;" d="M724.352 596.48c0 117.291-95.061 212.352-212.352 212.352s-212.352-95.061-212.352-212.352c0-109.952 83.883-199.339 191.019-210.176v-341.76l-156.245 218.795c-4.181 5.845-10.752 8.917-17.365 8.917-4.309 0-8.619-1.28-12.416-3.968-9.6-6.827-11.776-20.181-4.949-29.739l194.987-272.939c4.011-5.589 10.667-8.405 17.365-8.405s13.355 2.816 17.365 8.405l194.987 272.939c6.827 9.6 4.608 22.912-4.949 29.739-3.797 2.688-8.107 3.968-12.416 3.968-6.613 0-13.227-3.115-17.365-8.917l-156.331-218.795v341.76c107.093 10.837 191.019 100.224 191.019 210.176zM681.685 596.48c0-93.568-76.117-169.685-169.685-169.685s-169.685 76.117-169.685 169.685c0 93.568 76.117 169.685 169.685 169.685s169.685-76.117 169.685-169.685z" />
<glyph unicode="&#xe62c;" d="M515.285 404.352h-341.76l218.795 156.245c5.845 4.181 8.917 10.752 8.917 17.365 0 4.309-1.28 8.619-3.968 12.416-6.827 9.6-20.181 11.776-29.739 4.949l-272.939-194.987c-5.589-4.011-8.405-10.667-8.405-17.365s2.816-13.355 8.405-17.365l272.939-194.944c9.6-6.827 22.912-4.608 29.739 4.949 2.688 3.797 3.968 8.107 3.968 12.416 0 6.613-3.115 13.227-8.917 17.365l-218.795 156.245h341.76c10.88-107.093 100.224-190.976 210.219-190.976 117.291 0 212.352 95.061 212.352 212.352s-95.061 212.352-212.352 212.352c-109.995-0.043-199.339-83.925-210.219-191.019zM895.147 383.019c0-93.568-76.117-169.685-169.685-169.685s-169.685 76.117-169.685 169.685 76.117 169.685 169.685 169.685c93.611-0.043 169.685-76.16 169.685-169.685z" />
<glyph unicode="&#xe62d;" d="M661.589 189.099h-299.179c-14.72 0-28.16 7.467-35.968 19.968-7.765 12.501-8.491 27.819-2.005 41.045l149.589 303.957c2.048 4.224 4.779 8.064 8.064 11.349 19.243 19.285 55.68 13.44 67.883-11.392l149.547-303.957c8.021-16.299 4.779-35.883-8.107-48.725-7.893-7.851-18.475-12.245-29.824-12.245zM661.589 231.765v0zM511.701 535.253l-148.992-303.957 298.496 0.469-149.504 303.488z" />
<glyph unicode="&#xe62e;" d="M359.893 191.232c-11.179 0-22.144 4.565-30.037 12.501-7.936 7.851-12.331 18.475-12.331 29.867v299.136c0 29.952 34.219 51.285 61.056 38.016l303.957-149.547c4.395-2.133 8.235-4.949 11.563-8.32 9.387-9.387 13.781-23.168 11.563-36.693-2.261-13.568-10.667-24.875-23.083-31.019l-303.957-149.547c-5.973-2.901-12.245-4.395-18.731-4.395zM359.723 532.437l0.469-298.325 303.488 149.333-303.957 148.992z" />
<glyph unicode="&#xe62f;" d="M512 188.672v0c-16.299 0-30.848 9.088-38.016 23.68l-149.547 303.915c-8.021 16.299-4.779 35.883 8.107 48.725 7.893 7.936 18.517 12.331 29.824 12.331h299.179c14.72 0 28.16-7.467 35.925-19.968 7.808-12.501 8.576-27.861 2.048-41.088l-149.589-303.957c-2.091-4.309-4.821-8.149-8.149-11.435-7.808-7.808-18.432-12.203-29.781-12.203zM661.291 535.125l-298.88-0.469 149.589-302.891 149.291 303.36z" />
<glyph unicode="&#xe630;" d="M662.955 191.147v0c-6.528 0-12.843 1.493-18.688 4.395l-303.957 149.547c-4.395 2.133-8.235 4.949-11.563 8.32-9.387 9.344-13.781 23.168-11.563 36.693 2.261 13.568 10.667 24.875 23.083 30.976l304 149.547c16.085 7.851 36.181 4.437 48.725-8.107 7.936-7.893 12.331-18.517 12.331-29.867v-299.136c0-11.605-4.565-22.4-12.928-30.421-7.979-7.723-18.432-11.947-29.44-11.947zM662.613 532.651l-303.488-149.888 303.659-148.821-0.171 298.709z" />
<glyph unicode="&#xe631;" d="M661.589 400.085h-299.179c-14.72 0-28.16 7.467-35.968 19.968-7.765 12.501-8.491 27.819-2.005 41.045l149.589 303.957c2.048 4.224 4.779 8.064 8.064 11.349 19.2 19.285 55.723 13.44 67.883-11.392l149.547-303.957c8.021-16.299 4.779-35.883-8.107-48.725-7.893-7.851-18.475-12.245-29.824-12.245zM661.589 442.752v0zM511.701 746.24l-148.992-303.957 298.496 0.469-149.504 303.488zM512-21.931c-11.392 0-21.973 4.395-29.867 12.331-3.285 3.285-6.059 7.125-8.107 11.349l-149.547 303.957c-6.485 13.227-5.76 28.544 2.005 41.045 7.808 12.501 21.248 19.968 35.968 19.968h299.179c11.349 0 21.931-4.395 29.867-12.331 12.885-12.8 16.128-32.384 8.064-48.725l-149.589-303.957c-7.125-14.549-21.675-23.637-37.973-23.637zM661.291 324.523l-298.88-0.469 149.589-302.848 149.291 303.317z" />
<glyph unicode="&#xe632;" d="M680.405 240.299l-149.547 303.957c-6.613 13.44-24.021 15.317-33.664 5.675-1.579-1.579-2.944-3.456-4.053-5.675l-149.547-303.957c-6.869-13.952 3.285-30.293 18.859-30.293h299.136c5.931 0 11.093 2.389 14.805 6.101 6.016 6.016 8.277 15.573 4.011 24.192z" />
<glyph unicode="&#xe633;" d="M369.28 214.272l303.957 149.547c13.44 6.613 15.317 24.021 5.675 33.664-1.579 1.579-3.456 2.944-5.675 4.053l-303.957 149.547c-13.952 6.869-30.293-3.285-30.293-18.859v-299.136c0-5.931 2.389-11.093 6.101-14.805 6.059-6.016 15.573-8.277 24.192-4.011z" />
<glyph unicode="&#xe634;" d="M343.595 525.355l149.547-303.957c6.613-13.44 24.021-15.317 33.664-5.675 1.579 1.579 2.944 3.456 4.053 5.675l149.547 303.957c6.869 13.952-3.285 30.293-18.859 30.293h-299.136c-5.931 0-11.093-2.389-14.805-6.101-6.016-6.016-8.277-15.531-4.011-24.192z" />
<glyph unicode="&#xe635;" d="M654.72 551.083l-303.957-149.547c-13.44-6.613-15.317-24.021-5.675-33.664 1.579-1.579 3.456-2.944 5.675-4.053l303.957-149.547c13.952-6.869 30.293 3.285 30.293 18.859v299.136c0 5.931-2.389 11.093-6.101 14.805-6.059 5.973-15.573 8.277-24.192 4.011z" />
<glyph unicode="&#xe636;" d="M693.589 203.307l-143.659 316.117c-6.144 12.416-17.408 20.821-31.019 23.083-2.304 0.384-4.608 0.299-6.912 0.341-2.304 0-4.608 0.043-6.912-0.341-13.568-2.261-24.875-10.667-31.019-23.083l-143.659-316.117c-4.864-10.709-0.128-23.381 10.581-28.245 2.859-1.323 5.888-1.92 8.832-1.92 8.064 0 15.829 4.651 19.413 12.501l134.059 294.997c1.707 3.797 5.163 5.675 8.704 6.016 3.541-0.341 6.997-2.219 8.704-6.016l134.059-294.997c3.584-7.851 11.349-12.501 19.413-12.501 2.944 0 5.973 0.597 8.832 1.92 10.709 4.864 15.445 17.536 10.581 28.245z" />
<glyph unicode="&#xe637;" d="M357.333 176.427l316.117 143.659c12.416 6.144 20.821 17.408 23.083 31.019 0.384 2.304 0.341 4.608 0.341 6.912s0.043 4.608-0.341 6.912c-2.261 13.568-10.667 24.875-23.083 31.019l-316.117 143.616c-10.752 4.907-23.381 0.128-28.245-10.581-1.323-2.859-1.92-5.845-1.92-8.832 0-8.064 4.651-15.829 12.501-19.413l294.997-134.059c3.797-1.707 5.675-5.163 6.016-8.704-0.341-3.541-2.219-6.997-6.016-8.704l-294.997-134.059c-7.851-3.584-12.501-11.349-12.501-19.413 0-2.944 0.597-5.973 1.92-8.832 4.864-10.667 17.493-15.445 28.245-10.539z" />
<glyph unicode="&#xe638;" d="M693.589 512.683l-143.659-316.117c-6.144-12.416-17.408-20.821-31.019-23.083-2.304-0.384-4.608-0.341-6.912-0.341s-4.608-0.043-6.912 0.341c-13.568 2.261-24.875 10.667-31.019 23.083l-143.659 316.117c-4.864 10.709-0.128 23.339 10.581 28.245 2.901 1.28 5.888 1.92 8.832 1.92 8.064 0 15.829-4.651 19.413-12.501l134.059-294.997c1.707-3.797 5.163-5.675 8.704-6.016 3.541 0.341 6.997 2.219 8.704 6.016l134.059 294.997c3.584 7.851 11.349 12.501 19.413 12.501 2.944 0 5.973-0.597 8.832-1.92 10.709-4.907 15.445-17.536 10.581-28.245z" />
<glyph unicode="&#xe639;" d="M666.496 539.563l-316.117-143.659c-12.416-6.144-20.821-17.408-23.083-31.019-0.384-2.304-0.341-4.608-0.341-6.912s-0.043-4.608 0.341-6.912c2.261-13.568 10.667-24.875 23.083-31.019l316.117-143.659c10.709-4.864 23.381-0.128 28.245 10.581 1.323 2.859 1.92 5.888 1.92 8.832 0 8.064-4.651 15.829-12.501 19.413l-294.997 134.059c-3.797 1.707-5.675 5.163-6.016 8.704 0.341 3.541 2.219 6.997 6.016 8.704l294.997 134.059c7.851 3.584 12.501 11.349 12.501 19.413 0 2.944-0.597 5.973-1.92 8.832-4.864 10.709-17.493 15.488-28.245 10.581z" />
<glyph unicode="&#xe63a;" d="M680.405 450.987l-149.547 303.957c-6.613 13.44-24.021 15.317-33.664 5.675-1.579-1.579-2.944-3.456-4.053-5.675l-149.547-303.957c-6.869-13.952 3.285-30.293 18.859-30.293h299.136c5.931 0 11.093 2.389 14.805 6.101 6.016 6.016 8.277 15.531 4.011 24.192zM680.405 314.368l-149.547-303.957c-6.613-13.44-24.021-15.317-33.664-5.675-1.579 1.579-2.944 3.456-4.053 5.675l-149.547 303.957c-6.869 13.952 3.285 30.293 18.859 30.293h299.136c5.931 0 11.093-2.389 14.805-6.101 6.016-6.016 8.277-15.573 4.011-24.192z" />
<glyph unicode="&#xe63b;" d="M512 640.427l70.229-149.163c7.723-16.427 23.125-27.691 41.131-30.165l166.229-22.4-121.771-110.677c-13.696-12.459-20.011-31.488-16.469-49.621l32.213-166.059-145.109 83.2c-8.064 4.608-17.237 7.040-26.496 7.040s-18.432-2.432-26.539-7.083l-145.067-83.2 32.213 166.059c3.541 18.176-2.816 37.163-16.469 49.621l-121.771 110.677 166.272 22.4c18.005 2.432 33.365 13.696 41.131 30.123l70.272 149.248zM512 726.229c-3.883 0-7.723-2.048-9.643-6.101l-99.2-210.688c-1.536-3.285-4.651-5.547-8.235-6.016l-234.325-31.573c-9.003-1.195-12.459-12.373-5.76-18.475l172.587-156.885c2.773-2.517 4.011-6.272 3.285-9.941l-45.525-234.709c-1.365-6.997 4.224-12.715 10.496-12.715 1.749 0 3.584 0.427 5.291 1.451l205.696 117.931c1.664 0.939 3.456 1.408 5.291 1.408s3.669-0.469 5.291-1.408l205.696-117.931c1.749-0.981 3.541-1.451 5.291-1.451 6.272 0 11.819 5.717 10.496 12.715l-45.525 234.709c-0.725 3.669 0.555 7.424 3.285 9.941l172.587 156.885c6.699 6.101 3.243 17.237-5.76 18.475l-234.325 31.573c-3.499 0.469-6.613 2.731-8.149 6.016l-99.2 210.645c-1.92 4.096-5.76 6.144-9.643 6.144v0z" />
<glyph unicode="&#xe63c;" d="M521.643 720.085l99.2-210.645c1.536-3.285 4.651-5.547 8.235-6.016l234.325-31.573c9.003-1.195 12.459-12.373 5.76-18.475l-172.587-156.928c-2.773-2.517-4.011-6.272-3.285-9.941l45.525-234.709c1.749-8.96-7.851-15.829-15.787-11.264l-205.696 117.931c-3.285 1.877-7.339 1.877-10.624 0l-205.696-117.931c-7.936-4.523-17.536 2.304-15.787 11.264l45.525 234.709c0.725 3.669-0.555 7.424-3.285 9.941l-172.587 156.928c-6.741 6.101-3.285 17.237 5.717 18.432l234.325 31.573c3.584 0.512 6.699 2.773 8.235 6.059l99.2 210.645c3.84 8.149 15.445 8.149 19.285 0z" />
<glyph unicode="&#xe63d;" d="M859.605 668.629c-34.944 57.045-89.6 89.771-149.888 89.771-43.051 0-123.093-17.92-197.717-131.541-74.624 113.621-154.667 131.541-197.717 131.541-60.288 0-114.901-32.725-149.888-89.771-28.715-46.891-39.851-103.381-34.56-162.517 3.883-43.648 16.427-88.704 38.784-132.565 34.517-67.797 108.459-140.459 179.712-206.891 9.173-8.576 18.347-17.067 27.349-25.429 15.573-14.421 32.939-30.592 49.451-46.464 39.467-36.821 68.992-65.451 86.827-88.491 17.835 23.040 47.403 51.712 86.869 88.491 16.512 15.872 33.835 32 49.408 46.421 9.003 8.363 18.176 16.853 27.349 25.429 71.253 66.432 145.237 139.093 179.712 206.891 22.357 43.904 34.901 88.96 38.784 132.651 5.333 59.093-5.76 115.584-34.475 162.475zM619.349 172.501c-50.432-46.677-86.443-80.64-107.349-107.563-20.864 26.965-56.917 60.885-107.349 107.563-72.363 67.072-162.517 150.571-198.059 220.373-18.944 37.163-29.952 75.093-33.963 111.744-5.589 52.011 3.413 101.376 28.16 141.739 4.864 7.893 10.667 14.464 16.384 21.12 26.112 30.464 60.117 48.256 97.152 48.256 43.733 0 86.955-23.424 126.208-66.432 18.645-20.395 36.48-44.843 52.907-73.941 7.595-13.397 29.568-13.397 37.163 0 16.427 29.141 34.261 53.547 52.907 73.941 39.296 43.008 82.517 66.432 126.251 66.432 36.992 0 70.997-17.792 97.109-48.256 5.717-6.656 11.52-13.227 16.384-21.12 24.704-40.363 33.749-89.728 28.117-141.781-3.968-36.651-15.019-74.539-33.92-111.744-35.627-69.76-125.739-153.259-198.101-220.331z" />
<glyph unicode="&#xe63e;" d="M859.605 668.629c-34.944 57.045-89.6 89.771-149.888 89.771-43.051 0-123.093-17.92-197.717-131.541-74.624 113.621-154.667 131.541-197.717 131.541-60.288 0-114.901-32.725-149.888-89.771-28.715-46.891-39.851-103.381-34.56-162.517 3.883-43.648 16.427-88.704 38.784-132.565 34.517-67.797 108.459-140.459 179.712-206.891 9.173-8.576 18.347-17.067 27.349-25.429 15.573-14.421 32.939-30.592 49.451-46.464 39.467-36.821 68.992-65.451 86.827-88.491 17.835 23.040 47.403 51.712 86.869 88.491 16.512 15.872 33.835 32 49.408 46.421 9.003 8.363 18.176 16.853 27.349 25.429 71.253 66.432 145.237 139.093 179.712 206.891 22.357 43.904 34.901 88.96 38.784 132.651 5.333 59.093-5.76 115.584-34.475 162.475z" />
<glyph unicode="&#xe63f;" d="M702.677 639.488h-381.355c-11.776 0-21.333 9.557-21.333 21.333s9.557 21.333 21.333 21.333h381.355c11.776 0 21.333-9.557 21.333-21.333s-9.557-21.333-21.333-21.333zM702.677 511.488h-381.355c-11.776 0-21.333 9.557-21.333 21.333s9.557 21.333 21.333 21.333h381.355c11.776 0 21.333-9.557 21.333-21.333s-9.557-21.333-21.333-21.333zM702.677 383.488h-381.355c-11.776 0-21.333 9.557-21.333 21.333s9.557 21.333 21.333 21.333h381.355c11.776 0 21.333-9.557 21.333-21.333s-9.557-21.333-21.333-21.333zM702.677 255.488h-381.355c-11.776 0-21.333 9.557-21.333 21.333s9.557 21.333 21.333 21.333h381.355c11.776 0 21.333-9.557 21.333-21.333s-9.557-21.333-21.333-21.333zM794.197 807.125h-564.395c-33.579 0-60.928-27.349-60.928-60.928v-727.125c0-33.579 27.349-60.928 60.928-60.928h413.355l0.597-0.597 178.304 181.76 33.109 33.109v573.781c-0.043 33.579-27.392 60.928-60.971 60.928zM209.365 19.072v727.125c0 11.264 9.131 20.437 20.395 20.437h564.437c11.264 0 20.395-9.173 20.395-20.437v-533.376h-192.213c-11.776 0-21.333-9.557-21.333-21.333v-192.853h-371.243c-11.307 0-20.437 9.173-20.437 20.437zM643.755 18.517v151.637h148.693l-148.693-151.637z" />
<glyph unicode="&#xe640;" d="M554.667-44.331h-170.667c-35.285 0-64 28.715-64 64v597.376c0 17.067 6.656 33.152 18.731 45.269l128 128c24.917 24.96 65.579 24.96 90.496 0l128-128c12.075-12.075 18.731-28.16 18.731-45.269v-576.043h-42.667v576.043c0 5.589-2.304 11.093-6.229 15.104l-128 128c-8.32 8.32-21.845 8.32-30.165 0l-128-128c-3.925-4.011-6.229-9.515-6.229-15.104v-597.376c0-11.776 9.6-21.333 21.333-21.333h170.667c11.733 0 21.333 9.557 21.333 21.333v490.667c0 11.776-9.6 21.333-21.333 21.333h-85.333c-11.733 0-21.333-9.557-21.333-21.333v-384h-42.667v384c0 35.285 28.715 64 64 64h85.333c35.285 0 64-28.715 64-64v-490.667c0-35.285-28.715-64-64-64z" />
<glyph unicode="&#xe641;" d="M734.293 785.024l-72.704 44.672c-20.096 12.331-46.336 6.059-58.709-13.995l-361.216-587.861c-2.389-3.883-4.139-8.107-5.163-12.501l-9.045-96.213c-4.224-17.92 3.499-36.523 19.2-46.165s35.797-8.149 49.877 3.755l81.749 51.541c3.456 2.944 6.443 6.4 8.832 10.283l3.712 6.101 357.504 581.717c12.331 20.053 6.059 46.336-14.037 58.667zM309.205 134.656l-35.797 21.973 4.437 47.189c1.323-0.725 2.603-1.451 3.84-2.219 19.285-11.861 27.392-27.051 27.392-27.051s17.237-0.384 36.523-12.203c1.237-0.768 2.475-1.579 3.712-2.432l-40.107-25.259zM372.267 195.883c-1.451 0.981-2.901 1.963-4.309 2.816-12.672 7.808-24.875 12.331-34.859 14.933-6.827 7.723-16.384 16.555-29.056 24.363-1.451 0.896-2.944 1.707-4.48 2.56l272.683 443.733 72.704-44.672-272.683-443.733zM667.264 675.968l-72.704 44.672 22.229 36.181 72.704-44.672-22.229-36.181zM777.387-18.688h-530.773c-11.776 0-21.333 9.557-21.333 21.333s9.557 21.333 21.333 21.333h530.773c11.776 0 21.333-9.557 21.333-21.333s-9.557-21.333-21.333-21.333z" />
<glyph unicode="&#xe642;" d="M192 693.077h640c11.776 0 21.333 9.557 21.333 21.333s-9.557 21.333-21.333 21.333h-191.957v35.541c0 35.285-28.715 64-64 64h-114.731c-35.285 0-64-28.715-64-64v-35.541h-205.312c-11.776 0-21.333-9.557-21.333-21.333s9.557-21.333 21.333-21.333zM439.979 771.285c0 11.776 9.6 21.333 21.333 21.333h114.731c11.733 0 21.333-9.557 21.333-21.333v-35.541h-157.397v35.541zM512.171 580.139c-11.776 0-21.333-9.557-21.333-21.333v-471.083c0-11.776 9.557-21.333 21.333-21.333s21.333 9.557 21.333 21.333v471.083c0 11.776-9.557 21.333-21.333 21.333zM352.427 580.224c-11.733-0.896-20.565-11.093-19.712-22.869l34.816-468.48c0.853-11.221 10.197-19.755 21.248-19.755 0.555 0 1.067 0 1.621 0.043 11.733 0.896 20.565 11.093 19.712 22.869l-34.816 468.48c-0.896 11.776-11.52 20.736-22.869 19.712zM671.915 580.224c-11.477 1.067-22.016-7.936-22.869-19.669l-34.816-468.48c-0.896-11.733 7.979-21.973 19.712-22.869 0.555-0.043 1.067-0.043 1.621-0.043 11.051 0 20.437 8.533 21.248 19.755l34.816 468.48c0.853 11.733-7.979 21.931-19.712 22.827zM794.283 656.64h-564.565c-31.445 0-57.045-25.6-56.832-60.032l79.061-557.525c4.736-32 21.163-57.045 48.171-57.045h423.851c27.008 0 43.435 25.045 48.171 57.045l79.061 557.525c0.128 34.432-25.429 60.032-56.917 60.032zM729.643 42.069c0 0-2.944-17.365-15.616-17.365h-404.011c-12.672 0-15.616 17.365-15.616 17.365l-79.061 557.525c0 7.936 6.443 14.379 14.379 14.379h564.565c7.936 0 14.379-6.443 14.379-14.379l-79.019-557.525z" />
<glyph unicode="&#xe643;" d="M512 792.661c-212.096 0-384-171.904-384-384s171.904-384 384-384 384 171.904 384 384-171.904 384-384 384zM512 749.995c86.443 0 165.248-32.555 225.451-85.717l-481.067-481.067c-53.163 60.203-85.717 139.008-85.717 225.451 0 188.203 153.131 341.333 341.333 341.333zM512 67.328c-86.443 0-165.248 32.555-225.451 85.717l481.067 481.067c53.163-60.203 85.717-139.008 85.717-225.451 0-188.203-153.131-341.333-341.333-341.333z" />
<glyph unicode="&#xe644;" d="M445.909 639.531c79.701 0 150.357-50.816 175.829-126.421l14.123-41.941 41.387 15.659c19.072 7.211 38.016 10.88 56.363 10.88 88.192 0 159.957-71.765 159.957-159.957s-71.765-159.957-159.957-159.957h-486.869c-64.341 0-116.693 52.352-116.693 116.693 0 56.149 40.107 104.277 95.403 114.475l35.328 6.528-0.384 35.925c0 1.237-0.085 2.475-0.128 2.475v-0.043c-0.043 102.4 83.285 185.685 185.643 185.685zM445.909 682.197c-126.123 0-228.352-102.229-228.352-228.395 0-0.981 0.128-1.963 0.128-2.944-74.112-13.696-130.347-78.379-130.347-156.416 0-88.021 71.339-159.36 159.36-159.36h486.912c111.915 0 202.624 90.709 202.624 202.624s-90.709 202.624-202.624 202.624c-25.259 0-49.152-5.205-71.467-13.611-30.379 90.368-115.627 155.477-216.235 155.477v0z" />
<glyph unicode="&#xe645;" d="M712.875 642.389c-22.997 0-44.757-4.736-65.024-12.416-27.733 82.219-105.301 141.483-196.864 141.483-114.816 0-207.872-93.056-207.872-207.872 0-0.896 0.128-1.792 0.128-2.645-67.456-12.459-118.613-71.339-118.613-142.379 0-80.085 64.939-145.024 145.067-145.024h70.613v42.667h-70.656c-56.448 0-102.4 45.909-102.4 102.357 0 49.237 35.2 91.477 83.712 100.437l35.328 6.528-0.427 35.925c0 1.109-0.085 2.261-0.128 2.261 0 0 0-0.043 0-0.085 0 91.093 74.112 165.205 165.205 165.205 70.869 0 133.76-45.184 156.416-112.469l14.123-41.941 41.387 15.659c16.896 6.4 33.707 9.643 49.92 9.643 78.165 0 141.781-63.573 141.781-141.781s-63.573-141.781-141.781-141.781h-31.232v-42.667h31.232c101.845 0 184.448 82.56 184.448 184.448 0.043 101.888-82.517 184.448-184.363 184.448zM640.555 211.328l-112.213-157.099c-4.053-5.632-10.795-8.405-17.536-8.363-6.741-0.043-13.525 2.731-17.536 8.363l-112.213 157.099c-6.827 9.6-4.608 22.912 4.949 29.739 3.797 2.688 8.107 3.968 12.416 3.968 6.613 0 13.227-3.115 17.365-8.917l73.515-102.955v275.627c0 11.776 9.557 21.333 21.333 21.333 0.043 0 0.128-0.043 0.171-0.043s0.128 0.043 0.171 0.043c11.776 0 21.333-9.557 21.333-21.333v-275.627l73.515 102.955c4.181 5.845 10.752 8.917 17.365 8.917 4.309 0 8.619-1.28 12.416-3.968 9.6-6.827 11.776-20.139 4.949-29.739z" />
<glyph unicode="&#xe646;" d="M713.899 620.885c-22.997 0-44.757-4.736-65.024-12.416-27.733 82.219-105.301 141.483-196.864 141.483-114.816 0-207.872-93.056-207.872-207.872 0-0.896 0.128-1.792 0.128-2.645-67.456-12.459-118.613-71.339-118.613-142.379 0-80.085 64.939-145.024 145.067-145.024h70.613v42.667h-70.613c-56.448 0-102.4 45.909-102.4 102.357 0 49.237 35.2 91.477 83.712 100.437l35.328 6.528-0.427 35.925c0 1.109-0.085 2.261-0.128 2.261 0 0 0-0.043 0-0.085 0 91.093 74.112 165.205 165.205 165.205 70.869 0 133.76-45.184 156.416-112.469l14.123-41.941 41.387 15.659c16.896 6.4 33.707 9.643 49.92 9.643 78.165 0 141.781-63.573 141.781-141.781s-63.573-141.781-141.781-141.781h-31.189v-42.667h31.232c101.845 0 184.448 82.56 184.448 184.448s-82.56 184.448-184.448 184.448zM641.621 286.123l-112.213 157.099c-4.053 5.632-10.795 8.405-17.536 8.363-6.741 0.043-13.525-2.731-17.536-8.363l-112.213-157.099c-6.827-9.6-4.608-22.912 4.949-29.739 3.797-2.688 8.107-3.968 12.416-3.968 6.613 0 13.227 3.115 17.365 8.917l73.515 102.955v-275.627c0-11.776 9.557-21.333 21.333-21.333 0.043 0 0.128 0.043 0.171 0.043s0.128-0.043 0.171-0.043c11.776 0 21.333 9.557 21.333 21.333v275.627l73.515-102.955c4.181-5.845 10.752-8.917 17.365-8.917 4.309 0 8.619 1.28 12.416 3.968 9.557 6.827 11.776 20.181 4.949 29.739z" />
<glyph unicode="&#xe647;" d="M894.933 429.995c-10.752 194.987-166.613 350.848-361.6 361.6v1.067h-42.667v-1.067c-194.987-10.752-350.848-166.613-361.6-361.6h-1.067v-42.667h1.067c10.752-194.987 166.613-350.848 361.6-361.6v-1.067h42.667v1.067c194.987 10.752 350.848 166.613 361.6 361.6h1.067v42.667h-1.067zM852.267 429.995h-127.531c-1.963 64.171-12.629 124.032-29.995 176 26.112 7.979 51.072 16.939 73.088 27.904 48.597-55.168 79.573-125.952 84.437-203.904zM636.8 635.691c-33.749-7.211-68.693-11.307-103.467-12.587v123.861c42.027-10.965 77.611-53.504 103.467-111.275zM490.667 746.965v-123.904c-34.816 1.323-69.76 5.419-103.467 12.629 25.856 57.771 61.44 100.309 103.467 111.275zM490.667 580.437v-150.443h-148.779c2.091 56.405 12.373 113.835 29.269 164.352 37.205-8.235 77.611-12.587 119.509-13.909zM490.667 387.328v-150.443c-41.899-1.323-82.304-5.675-119.509-13.909-16.896 50.475-27.179 107.904-29.269 164.352h148.779zM490.667 194.261v-123.904c-42.027 10.965-77.611 53.504-103.467 111.317 33.707 7.168 68.651 11.264 103.467 12.587zM533.333 70.357v123.904c34.816-1.323 69.76-5.376 103.467-12.587-25.856-57.813-61.44-100.352-103.467-111.317zM533.333 236.885v150.443h148.779c-2.091-56.405-12.373-113.835-29.269-164.352-37.205 8.235-77.611 12.587-119.509 13.909zM533.333 429.995v150.443c41.899 1.323 82.304 5.675 119.509 13.909 16.896-50.475 27.179-107.904 29.269-164.352h-148.779zM767.787 633.899c-10.112 11.477-20.949 22.315-32.555 32.341-17.451-7.595-36.309-14.165-55.893-19.925-13.995 31.872-30.592 59.733-49.451 82.219 53.589-19.797 100.821-52.523 137.899-94.635zM394.069 728.576c-18.816-22.528-35.456-50.389-49.408-82.261-19.584 5.803-38.485 12.331-55.893 19.925-11.605-10.027-22.443-20.864-32.555-32.341 37.077 42.112 84.309 74.837 137.856 94.677zM256.171 633.899c22.016-10.965 46.976-19.925 73.088-27.904-17.365-51.968-28.032-111.829-29.995-176h-127.531c4.864 77.952 35.84 148.736 84.437 203.904zM171.733 387.328h127.531c1.963-64.171 12.629-124.032 29.995-176-26.112-7.979-51.072-16.939-73.088-27.861-48.597 55.125-79.573 125.952-84.437 203.861zM256.213 183.424c10.112-11.477 20.949-22.315 32.555-32.341 17.451 7.595 36.309 14.165 55.893 19.925 13.995-31.872 30.592-59.733 49.451-82.219-53.589 19.797-100.821 52.565-137.899 94.635zM629.931 88.789c18.816 22.528 35.456 50.389 49.451 82.219 19.584-5.803 38.485-12.331 55.893-19.925 11.563 10.027 22.4 20.864 32.555 32.341-37.12-42.069-84.352-74.837-137.899-94.635zM767.829 183.467c-22.016 10.965-46.933 19.925-73.045 27.861 17.365 51.968 28.032 111.829 29.995 176h127.531c-4.907-77.909-35.883-148.736-84.48-203.861z" />
<glyph unicode="&#xe648;" d="M837.504 637.824h-91.605v154.837h-467.797v-154.837h-91.605c-32.299 0-58.496-26.197-58.496-58.496v-282.837c0-32.299 26.197-58.496 58.496-58.496h91.605v-213.333h467.797v213.333h91.605c32.299 0 58.496 26.197 58.496 58.496v282.837c0 32.299-26.197 58.496-58.496 58.496zM320.768 749.995h382.464v-112.171h-382.464v112.171zM703.232 67.328h-382.464v287.616h382.464v-287.616zM853.333 296.491c0-8.704-7.083-15.829-15.829-15.829h-91.605v116.949h-467.797v-116.949h-91.605c-8.747 0-15.829 7.083-15.829 15.829v282.837c0 8.704 7.083 15.829 15.829 15.829h651.008c8.747 0 15.829-7.125 15.829-15.829v-282.837zM384 259.328h256c11.776 0 21.333 9.557 21.333 21.333s-9.557 21.333-21.333 21.333h-256c-11.776 0-21.333-9.557-21.333-21.333s9.557-21.333 21.333-21.333zM384 173.995h256c11.776 0 21.333 9.557 21.333 21.333s-9.557 21.333-21.333 21.333h-256c-11.776 0-21.333-9.557-21.333-21.333s9.557-21.333 21.333-21.333zM384 88.661h256c11.776 0 21.333 9.557 21.333 21.333s-9.557 21.333-21.333 21.333h-256c-11.776 0-21.333-9.557-21.333-21.333s9.557-21.333 21.333-21.333zM810.667 536.661c0-23.564-19.103-42.667-42.667-42.667s-42.667 19.103-42.667 42.667c0 23.564 19.103 42.667 42.667 42.667s42.667-19.103 42.667-42.667z" />
<glyph unicode="&#xe649;" d="M830.507 427.52h-16.341v6.101c0 43.776-38.656 79.232-86.315 79.232h-2.517v268.629c0 15.659-10.624 28.373-23.723 28.373h-379.221c-13.099-0.043-23.723-12.715-23.723-28.373v-268.629h-2.517c-47.659 0-86.315-35.456-86.315-79.232v-6.101h-16.341c-11.349 0-20.523-9.557-20.523-21.333v-85.333c0-11.776 9.173-21.333 20.523-21.333h16.341v-262.101c0-43.776 38.656-79.232 86.315-79.232h431.659c47.659 0 86.315 35.456 86.315 79.232v262.101h16.341c11.349 0 20.523 9.557 20.523 21.333v85.333c0.043 11.776-9.131 21.333-20.48 21.333zM215.637 342.187v42.667h592.725v-42.667h-592.725zM727.851 470.187c24.064 0 43.648-16.427 43.648-36.565v-6.101h-46.165v42.667h2.517zM341.333 767.147h341.333v-339.669h-341.333v339.669zM252.501 433.579c0 20.181 19.584 36.565 43.648 36.565h2.517v-42.667h-46.165v6.101zM771.499 37.419c0-20.181-19.584-36.565-43.648-36.565h-431.701c-24.064 0-43.648 16.427-43.648 36.565v262.101h518.997v-262.101zM702.677 64.853h-381.355c-11.776 0-21.333-9.557-21.333-21.333s9.557-21.333 21.333-21.333h381.355c11.776 0 21.333 9.557 21.333 21.333s-9.557 21.333-21.333 21.333zM395.221 591.659h233.6c11.776 0 21.333 9.557 21.333 21.333s-9.557 21.333-21.333 21.333h-233.6c-11.776 0-21.333-9.557-21.333-21.333s9.515-21.333 21.333-21.333zM395.221 504.192h233.6c11.776 0 21.333 9.557 21.333 21.333s-9.557 21.333-21.333 21.333h-233.6c-11.776 0-21.333-9.557-21.333-21.333s9.515-21.333 21.333-21.333zM395.221 673.323h233.6c11.776 0 21.333 9.557 21.333 21.333s-9.557 21.333-21.333 21.333h-233.6c-11.776 0-21.333-9.557-21.333-21.333s9.515-21.333 21.333-21.333zM367.829 223.403c0-23.564-19.103-42.667-42.667-42.667s-42.667 19.103-42.667 42.667c0 23.564 19.103 42.667 42.667 42.667s42.667-19.103 42.667-42.667zM492.373 223.403c0-23.564-19.103-42.667-42.667-42.667s-42.667 19.103-42.667 42.667c0 23.564 19.103 42.667 42.667 42.667s42.667-19.103 42.667-42.667zM616.96 223.403c0-23.564-19.103-42.667-42.667-42.667s-42.667 19.103-42.667 42.667c0 23.564 19.103 42.667 42.667 42.667s42.667-19.103 42.667-42.667zM741.547 223.403c0-23.564-19.103-42.667-42.667-42.667s-42.667 19.103-42.667 42.667c0 23.564 19.103 42.667 42.667 42.667s42.667-19.103 42.667-42.667zM430.080 128.853c0-23.564-19.103-42.667-42.667-42.667s-42.667 19.103-42.667 42.667c0 23.564 19.103 42.667 42.667 42.667s42.667-19.103 42.667-42.667zM554.667 128.853c0-23.564-19.103-42.667-42.667-42.667s-42.667 19.103-42.667 42.667c0 23.564 19.103 42.667 42.667 42.667s42.667-19.103 42.667-42.667zM679.253 128.853c0-23.564-19.103-42.667-42.667-42.667s-42.667 19.103-42.667 42.667c0 23.564 19.103 42.667 42.667 42.667s42.667-19.103 42.667-42.667z" />
<glyph unicode="&#xe64a;" d="M512 492.075c46.165 0 83.755-37.547 83.755-83.755s-37.547-83.755-83.755-83.755-83.755 37.547-83.755 83.755 37.589 83.755 83.755 83.755zM512 534.741c-69.803 0-126.421-56.576-126.421-126.421s56.576-126.421 126.421-126.421 126.421 56.576 126.421 126.421-56.619 126.421-126.421 126.421v0zM512.128 24.192c-16.256 0-32.469 2.091-48.213 6.187l-13.184 3.456-15.019 83.755c-26.368 6.912-51.627 17.408-75.307 31.317l-69.845-48.683-11.776 6.869c-13.696 8.021-26.411 17.749-37.845 29.013-11.776 11.733-21.931 24.832-30.208 38.955l-6.869 11.776 48.768 69.931c-13.952 23.765-24.405 48.981-31.317 75.307l-83.755 14.976-3.456 13.184c-4.053 15.317-6.144 31.232-6.229 47.275-0.085 16.427 2.005 32.896 6.229 48.896l3.456 13.227 83.755 14.976c6.912 26.325 17.365 51.541 31.317 75.307l-48.768 69.888 6.869 11.776c8.107 13.781 17.877 26.539 29.056 37.803 11.776 11.819 24.875 21.973 39.040 30.208l11.733 6.869 69.888-48.725c23.68 13.909 48.896 24.405 75.307 31.317l14.976 83.712 13.184 3.499c15.317 4.053 31.232 6.144 47.317 6.229 16.896 0 33.109-2.091 48.896-6.187l13.184-3.456 15.019-83.755c26.368-6.912 51.627-17.408 75.307-31.317l69.931 48.725 11.733-6.869c13.696-8.021 26.411-17.749 37.845-29.013 11.776-11.733 21.931-24.832 30.208-38.955l6.869-11.776-48.768-69.931c13.952-23.765 24.405-48.981 31.317-75.307l83.755-14.976 3.456-13.184c4.053-15.317 6.144-31.232 6.229-47.275 0.085-16.427-2.005-32.896-6.229-48.896l-3.456-13.227-83.755-14.976c-6.912-26.325-17.365-51.541-31.317-75.307l48.768-69.931-6.869-11.776c-8.064-13.781-17.877-26.496-29.056-37.803-11.733-11.776-24.875-21.973-39.040-30.208l-11.733-6.869-69.888 48.725c-23.68-13.909-48.896-24.405-75.307-31.317l-14.976-83.712-13.184-3.499c-15.317-4.053-31.232-6.144-47.317-6.229h-0.725zM487.851 68.907c8.021-1.365 16.128-2.005 24.277-2.005v-21.333l0.512 21.333c7.979 0.043 15.829 0.725 23.552 2.005l15.104 84.224 14.080 2.944c31.019 6.528 60.373 18.731 87.253 36.267l12.032 7.893 70.272-48.981c6.741 4.821 13.099 10.197 18.987 16.128 5.547 5.589 10.624 11.605 15.189 18.048l-48.939 70.272 7.851 12.032c17.579 26.965 29.781 56.32 36.309 87.296l2.944 14.080 84.224 15.061c1.365 8.192 2.048 16.512 2.005 24.789-0.043 7.936-0.725 15.829-2.005 23.595l-84.224 15.061-2.944 14.080c-6.485 30.976-18.688 60.331-36.309 87.296l-7.851 12.032 48.939 70.272c-4.779 6.741-10.197 13.099-16.128 18.987-5.632 5.547-11.648 10.667-18.091 15.189l-70.272-48.981-12.032 7.893c-26.88 17.536-56.235 29.739-87.253 36.267l-14.080 2.944-15.104 84.181c-16.128 2.731-32.896 2.603-48.341 0l-15.061-84.181-14.080-2.944c-31.019-6.528-60.373-18.731-87.253-36.267l-12.032-7.893-70.315 48.981c-6.741-4.821-13.056-10.197-18.987-16.128-5.547-5.589-10.624-11.648-15.189-18.091l48.939-70.272-7.851-12.032c-17.579-26.965-29.781-56.32-36.309-87.296l-2.944-14.080-84.224-15.061c-1.365-8.192-2.048-16.512-2.005-24.789 0.043-7.936 0.725-15.829 2.005-23.595l84.224-15.061 2.944-14.080c6.485-30.976 18.688-60.331 36.309-87.296l7.851-12.032-48.939-70.272c4.779-6.741 10.197-13.099 16.128-18.987 5.632-5.547 11.648-10.667 18.091-15.189l70.272 48.981 12.032-7.893c26.88-17.536 56.235-29.739 87.253-36.267l14.080-2.944 15.104-84.181z" />
<glyph unicode="&#xe64b;" d="M809.259 493.867h-41.259v170.496c0 0-1.323 170.667-256 170.667s-256-170.667-256-170.667v-170.496h-41.259c-23.68 0-42.837-19.2-42.837-42.837v-426.496c0-23.68 19.2-42.837 42.837-42.837h594.56c23.68 0 42.837 19.2 42.837 42.837v426.496c0 23.637-19.2 42.837-42.88 42.837zM382.080 641.365c0.469 6.443 8.107 63.061 129.92 63.061 121.856 0 129.451-56.619 129.877-61.44v-149.163h-259.755l-0.043 147.541zM298.667 663.467c0.469 13.184 10.283 128.896 213.333 128.896s212.907-115.669 213.333-128v-170.496h-40.789v149.163c0 0-1.152 104.107-172.544 104.107s-172.544-104.107-172.544-104.107v-149.163h-40.789v169.6zM787.968 24.32l-552.107 0.171c-11.776 0-21.333 9.557-21.333 21.333l0.171 384.043c0 11.776 9.557 21.333 21.333 21.333l551.893-0.171c11.776 0 21.333-9.557 21.333-21.333v-384c0.043-11.819-9.515-21.376-21.291-21.376zM512 365.696c-47.104 0-85.333-38.229-85.333-85.333 0-24.576 10.539-46.549 27.136-62.123l-27.136-108.544h170.667l-27.136 108.544c16.597 15.573 27.136 37.547 27.136 62.123 0 47.104-38.187 85.333-85.333 85.333zM528.811 207.872l13.867-55.552h-61.355l13.867 55.552 6.101 24.32-18.304 17.152c-8.789 8.277-13.653 19.285-13.653 31.019 0 23.509 19.157 42.667 42.667 42.667s42.667-19.157 42.667-42.667c0-11.733-4.864-22.741-13.653-30.976l-18.304-17.152 6.101-24.363z" />
<glyph unicode="&#xe64c;" d="M575.232 725.333c12.203 0 22.101-9.899 22.101-22.101v-212.565c0-11.776 9.557-21.333 21.333-21.333h212.565c12.203 0 22.101-9.899 22.101-22.101v-126.464c0-12.203-9.899-22.101-22.101-22.101h-212.565c-11.776 0-21.333-9.557-21.333-21.333v-212.565c0-12.203-9.899-22.101-22.101-22.101h-126.464c-12.203 0-22.101 9.899-22.101 22.101v212.565c0 11.776-9.557 21.333-21.333 21.333h-212.565c-12.203 0-22.101 9.899-22.101 22.101v126.464c0 12.203 9.899 22.101 22.101 22.101h212.565c11.776 0 21.333 9.557 21.333 21.333v212.565c0 12.203 9.899 22.101 22.101 22.101h126.464zM575.232 768h-126.464c-35.755 0-64.768-29.013-64.768-64.768v-191.232h-191.232c-35.755 0-64.768-29.013-64.768-64.768v-126.464c0-35.755 29.013-64.768 64.768-64.768h191.232v-191.232c0-35.755 29.013-64.768 64.768-64.768h126.464c35.755 0 64.768 29.013 64.768 64.768v191.232h191.232c35.755 0 64.768 29.013 64.768 64.768v126.464c0 35.755-29.013 64.768-64.768 64.768h-191.232v191.232c0 35.755-29.013 64.768-64.768 64.768v0z" />
<glyph unicode="&#xe64d;" d="M869.163 567.296h-137.472v26.624c0 20.309-16.469 36.779-36.779 36.779h-374.656l-32.299 60.373c-6.357 11.861-19.328 19.328-33.493 19.328h-89.173c-20.693 0-37.419-15.659-37.419-34.944v-532.395c0-16.853 11.563-30.464 27.008-34.816 2.901-0.896 5.76-1.963 9.216-1.963h566.955c20.011 0 41.045 16.171 47.061 36.139l116.48 388.693c5.931 19.968-5.419 36.181-25.429 36.181zM731.691 149.376c-0.213-0.085-0.512-0.427-0.683-0.469h-545.792l110.848 369.963c0.683 2.005 4.565 5.376 6.187 5.76h545.835l-110.848-369.963c-0.64-1.792-3.712-4.437-5.547-5.291zM689.024 567.296h-386.816c-20.011 0-41.045-16.171-47.061-36.139l-84.651-282.453v339.328h518.485v-20.736zM170.539 667.733h81.493l19.84-37.035h-101.333v37.035z" />
<glyph unicode="&#xe64e;" d="M811.136 338.261v0l83.413 278.187c5.973 19.968-5.376 36.139-25.387 36.139h-137.472v26.667c0 20.309-16.469 36.779-36.779 36.779h-374.656l-32.299 60.373c-6.357 11.861-19.328 19.328-33.493 19.328h-89.173c-20.693 0-37.419-15.659-37.419-34.944v-532.395c0-16.853 11.563-30.464 27.008-34.816 2.901-0.896 5.76-1.963 9.216-1.963h390.485c0-94.251 76.416-170.667 170.667-170.667s170.667 76.416 170.667 170.667c-0.043 62.72-34.304 116.992-84.779 146.645zM170.539 753.067h81.493l19.84-37.035h-101.333v37.035zM170.539 655.872v17.493h518.485v-20.779h-386.816c-20.011 0-41.045-16.171-47.061-36.139l-84.651-282.453v321.877zM185.216 234.24l110.848 369.963c0.683 2.005 4.565 5.376 6.187 5.76h545.835l-76.373-254.891c-14.848 4.224-30.251 7.211-46.464 7.211-79.445 0-145.621-54.528-164.651-128v0h-375.381zM725.205 63.573c-70.571 0-128 57.429-128 128s57.429 128 128 128 128-57.429 128-128-57.429-128-128-128zM797.781 212.907h-51.243v51.285c0 11.776-9.557 21.333-21.333 21.333s-21.333-9.557-21.333-21.333v-51.285h-51.243c-11.776 0-21.333-9.557-21.333-21.333s9.557-21.333 21.333-21.333h51.243v-51.285c0-11.776 9.557-21.333 21.333-21.333s21.333 9.557 21.333 21.333v51.285h51.243c11.776 0 21.333 9.557 21.333 21.333s-9.557 21.333-21.333 21.333z" />
<glyph unicode="&#xe64f;" d="M811.136 338.261v0l83.413 278.187c5.973 19.968-5.376 36.139-25.387 36.139h-137.472v26.667c0 20.309-16.469 36.779-36.779 36.779h-374.656l-32.299 60.373c-6.357 11.861-19.328 19.328-33.493 19.328h-89.173c-20.693 0-37.419-15.659-37.419-34.944v-532.395c0-16.853 11.563-30.464 27.008-34.816 2.901-0.896 5.76-1.963 9.216-1.963h390.485c0-94.251 76.416-170.667 170.667-170.667s170.667 76.416 170.667 170.667c-0.043 62.72-34.304 116.992-84.779 146.645zM170.539 753.067h81.493l19.84-37.035h-101.333v37.035zM170.539 655.872v17.493h518.485v-20.779h-386.816c-20.011 0-41.045-16.171-47.061-36.139l-84.651-282.453v321.877zM185.216 234.24l110.848 369.963c0.683 2.005 4.565 5.376 6.187 5.76h545.835l-76.373-254.891c-14.848 4.224-30.251 7.211-46.464 7.211-79.445 0-145.621-54.528-164.651-128v0h-375.381zM725.205 63.573c-70.571 0-128 57.429-128 128s57.429 128 128 128 128-57.429 128-128-57.429-128-128-128zM797.824 170.24c11.776 0 21.333 9.557 21.333 21.333s-9.557 21.333-21.333 21.333h-145.195c-11.776 0-21.333-9.557-21.333-21.333s9.557-21.333 21.333-21.333h145.195z" />
<glyph unicode="&#xe650;" d="M853.333 236.971c0 0-128 34.176-128 128 0 85.248 14.165 331.861-156.544 376.363 4.437 8.704 7.211 18.475 7.211 28.971 0 35.328-28.672 64-64 64s-64-28.672-64-64c0-10.496 2.773-20.224 7.211-28.971-170.709-44.544-156.544-291.115-156.544-376.363 0-93.824-128-128-128-128v-128h238.293c-1.408-6.869-2.176-14.037-2.176-21.333 0-58.112 47.104-105.216 105.216-105.216s105.216 47.104 105.216 105.216c0 7.296-0.768 14.464-2.176 21.333h238.293v128zM490.667 770.304c0 11.776 9.557 21.333 21.333 21.333s21.333-9.557 21.333-21.333-9.557-21.333-21.333-21.333-21.333 9.557-21.333 21.333zM574.549 87.637c0-34.517-28.075-62.549-62.549-62.549s-62.549 28.075-62.549 62.549c0 7.509 1.536 14.635 4.011 21.333h117.163c2.389-6.699 3.925-13.824 3.925-21.333zM810.667 151.637h-597.333v54.869c57.685 23.723 128 74.795 128 158.464l-0.128 19.627c-0.725 69.632-2.219 214.571 64.981 282.496 26.112 26.368 60.715 39.211 105.813 39.211s79.701-12.8 105.813-39.211c67.243-67.925 65.749-212.864 65.024-282.496l-0.171-19.627c0-83.669 70.315-134.741 128-158.464v-54.869z" />
<glyph unicode="&#xe651;" d="M782.208 740.693c-30.293 30.293-70.4 46.933-113.067 46.933s-83.2-16.64-113.493-46.933l-165.973-165.973c-43.947-43.947-57.173-107.947-38.4-163.413l-109.227-109.227c-30.293-30.293-46.933-70.4-46.933-113.067s16.64-82.773 46.933-113.067c30.293-30.293 70.4-46.933 113.067-46.933s83.2 16.64 113.493 46.933l165.973 165.973c43.947 43.947 57.173 107.947 38.4 163.413l109.227 109.227c62.251 62.293 62.251 163.84 0 226.133zM604.245 271.787l-165.973-165.973c-23.040-22.613-52.907-34.133-83.2-34.133-29.867 0-60.16 11.52-82.773 34.133-46.080 46.080-46.080 120.32 0 165.973l98.987 98.987c5.12-7.68 11.52-15.36 18.347-22.187 1.28-1.28 2.987-2.987 4.693-4.267l-97.28-97.28c-15.36-15.36-23.893-36.267-23.893-58.027 0-22.187 8.533-42.667 23.893-58.027 15.36-15.787 36.267-24.32 58.027-24.32 22.187 0 42.667 8.533 58.027 24.32l166.4 165.973c11.093 10.667 18.347 24.32 21.333 38.4 4.693 17.92 2.987 36.693-4.693 53.76-3.84 8.533-9.387 16.64-16.64 23.893-1.707 1.707-3.413 2.987-5.12 3.84-11.947 10.667-26.453 17.067-41.813 18.773-3.84 0.853-7.68 1.28-11.52 1.28-13.227 0-25.6-2.987-37.12-9.387-3.413 1.28-6.4 3.84-8.96 6.4-6.4 6.4-10.24 14.507-11.093 23.040 17.493 10.24 37.547 15.36 57.173 15.36 14.080 0 27.733-2.56 40.96-7.253 13.653-5.12 26.453-12.8 37.547-23.040 1.707-1.28 2.987-2.56 4.693-4.267 7.253-6.827 13.227-14.933 17.493-23.040 8.533-13.653 13.653-29.013 15.787-44.8 4.267-34.56-6.4-71.253-33.28-98.133zM429.781 319.147c22.187-11.52 47.36-17.493 73.387-17.493 7.68 0 14.933 0.427 22.187 1.707l-142.080-142.507c-7.68-7.68-17.92-11.52-28.16-11.52-9.813 0-20.053 3.84-27.733 11.52-15.36 15.787-15.36 40.533 0 55.893l102.4 102.4zM498.901 513.28l142.080 142.507c7.68 7.68 17.92 11.52 28.16 11.52 9.813 0 20.053-3.84 27.733-11.52 15.36-15.787 15.36-40.533 0-55.893l-102.4-102.4c-22.187 11.52-47.36 17.493-73.387 17.493-7.68 0-14.976-0.427-22.187-1.707zM652.885 445.867c-5.12 7.68-11.52 15.36-18.347 22.187-1.28 1.28-2.987 2.987-4.693 4.267l97.28 97.28c15.36 15.36 23.893 36.267 23.893 58.027 0 22.187-8.533 42.667-23.893 58.027-15.36 15.787-36.267 24.32-58.027 24.32-22.187 0-42.667-8.533-58.027-24.32l-165.973-165.973c-10.667-10.667-18.347-23.893-21.333-37.973-2.133-6.4-2.987-13.227-2.987-20.053 0-11.52 2.56-23.040 7.68-33.707 3.413-8.96 9.387-17.067 16.64-24.32 1.28-1.28 2.987-2.987 4.693-3.84 11.52-10.667 26.027-17.067 41.813-18.773 3.84-0.853 7.68-1.28 11.52-1.28 13.227 0 25.6 2.987 37.12 9.387 3.413-1.28 6.4-3.84 8.96-6.4 6.4-6.4 10.24-14.507 11.093-23.040-17.493-10.24-37.547-15.36-57.173-15.36-14.080 0-27.733 2.56-40.96 7.253-13.653 5.12-26.453 12.8-37.547 23.040-1.707 1.28-2.987 2.56-4.693 4.267-7.253 6.827-13.227 14.933-17.493 23.040-8.533 13.653-13.653 29.013-15.787 44.8-4.267 34.56 6.4 71.253 33.28 98.133l165.973 165.973c23.040 22.613 52.907 34.133 83.2 34.133 29.867 0 60.16-11.52 82.773-34.133 46.080-46.080 46.080-120.32 0-165.973l-98.987-98.987z" />
<glyph unicode="&#xe652;" d="M703.829 152.32h-106.667v405.333c0 11.776-9.557 21.333-21.333 21.333h-213.333c-11.776 0-21.333-9.557-21.333-21.333v-85.333c0-11.776 9.557-21.333 21.333-21.333h64v-298.667h-106.667c-11.776 0-21.333-9.557-21.333-21.333v-85.333c0-11.776 9.557-21.333 21.333-21.333h384c11.776 0 21.333 9.557 21.333 21.333v85.333c0 11.776-9.557 21.333-21.333 21.333zM682.496 77.483c0-5.803-4.693-10.453-10.453-10.453h-320.427c-5.803 0-10.453 4.693-10.453 10.453v21.717c0 5.803 4.693 10.453 10.453 10.453h106.88c5.888 0 10.667 4.779 10.667 10.667v362.667c0 5.888-4.779 10.667-10.667 10.667h-63.957c-5.931 0-10.709 4.779-10.709 10.709v21.248c0 5.931 4.779 10.709 10.709 10.709h149.291c5.888 0 10.667-4.779 10.667-10.667v-405.333c0-5.888 4.779-10.667 10.667-10.667h106.88c5.803 0 10.453-4.693 10.453-10.453v-21.717zM575.829 792.32h-128c-11.776 0-21.333-9.557-21.333-21.333v-128c0-11.776 9.557-21.333 21.333-21.333h128c11.776 0 21.333 9.557 21.333 21.333v128c0 11.776-9.557 21.333-21.333 21.333zM553.941 675.541c0-5.888-4.779-10.667-10.667-10.667h-62.933c-5.888 0-10.667 4.779-10.667 10.667v62.933c0 5.888 4.779 10.667 10.667 10.667h62.933c5.888 0 10.667-4.779 10.667-10.667v-62.933z" />
<glyph unicode="&#xe653;" d="M597.333 770.987c0 11.776-9.557 21.333-21.333 21.333h-128c-11.776 0-21.333-9.557-21.333-21.333v-512c0-11.776 9.557-21.333 21.333-21.333h128c11.776 0 21.333 9.557 21.333 21.333v512zM554.667 312.277v-21.291c0-5.888-4.779-10.667-10.667-10.667h-63.957c-5.931 0-10.709 4.779-10.709 10.709v448.171c0 5.803 4.693 10.453 10.453 10.453h64.427c5.76 0 10.453-4.693 10.453-10.453v-426.923zM597.333 45.653v128c0 11.776-9.557 21.333-21.333 21.333h-128c-11.776 0-21.333-9.557-21.333-21.333v-128c0-11.776 9.557-21.333 21.333-21.333h128c11.776 0 21.333 9.557 21.333 21.333zM554.112 78.208c0-5.888-4.779-10.667-10.667-10.667h-62.933c-5.888 0-10.667 4.779-10.667 10.667v62.933c0 5.888 4.779 10.667 10.667 10.667h62.933c5.888 0 10.667-4.779 10.667-10.667v-62.933z" />
<glyph unicode="&#xe654;" d="M809.045 790.613v-764.459l-236.928 236.416c-16.128 16.085-37.504 24.917-60.288 24.917s-44.203-8.875-60.288-24.96l-236.587-236.288v764.373h594.091zM809.045 833.28h-594.091c-23.552 0-42.667-19.115-42.667-42.667v-764.373c0-25.728 21.035-42.752 42.965-42.752 10.453 0 21.163 3.883 29.824 12.544l236.587 236.288c8.32 8.32 19.243 12.459 30.165 12.459 10.88 0 21.803-4.139 30.123-12.459l236.928-236.416c8.704-8.661 19.371-12.544 29.824-12.544 21.931 0 42.965 17.024 42.965 42.752v764.501c0.043 23.552-19.072 42.667-42.624 42.667v0z" />
<glyph unicode="&#xe655;" d="M510.976 597.931l8.064-24.832c7.168-22.016 27.563-36.821 50.731-36.821h26.112l-21.12-15.36c-18.731-13.611-26.539-37.589-19.371-59.605l8.064-24.832-21.12 15.317c-9.173 6.656-20.011 10.197-31.36 10.197s-22.187-3.541-31.36-10.197l-21.12-15.36 8.064 24.832c7.168 22.016-0.64 45.995-19.371 59.605l-21.12 15.36h26.112c23.168 0 43.563 14.805 50.731 36.864l8.064 24.832zM510.976 712.149c-4.267 0-8.533-2.475-10.155-7.381l-38.485-118.485c-1.451-4.395-5.504-7.381-10.155-7.381h-124.587c-10.325 0-14.635-13.227-6.272-19.285l100.779-73.216c3.755-2.731 5.291-7.552 3.883-11.947l-38.485-118.485c-2.432-7.467 3.499-13.995 10.197-13.995 2.091 0 4.224 0.64 6.229 2.091l100.779 73.216c1.877 1.365 4.053 2.048 6.272 2.048s4.395-0.683 6.272-2.048l100.779-73.216c2.005-1.451 4.139-2.091 6.229-2.091 6.656 0 12.629 6.528 10.197 13.995l-38.528 118.485c-1.408 4.395 0.128 9.216 3.883 11.947l100.779 73.216c8.363 6.059 4.053 19.285-6.272 19.285h-124.587c-4.608 0-8.704 2.987-10.155 7.381l-38.485 118.485c-1.579 4.907-5.845 7.381-10.112 7.381v0zM808.021 790.613v-764.459l-236.928 236.416c-16.128 16.085-37.504 24.917-60.288 24.917s-44.203-8.875-60.288-24.96l-236.587-236.288v764.373h594.091zM808.021 833.28h-594.091c-23.552 0-42.667-19.115-42.667-42.667v-764.373c0-25.728 21.035-42.752 42.965-42.752 10.453 0 21.163 3.883 29.824 12.544l236.587 236.288c8.32 8.32 19.243 12.459 30.165 12.459 10.88 0 21.803-4.139 30.123-12.459l236.928-236.416c8.704-8.661 19.371-12.544 29.824-12.544 21.931 0 42.965 17.024 42.965 42.752v764.501c0.043 23.552-19.072 42.667-42.624 42.667v0z" />
<glyph unicode="&#xe656;" d="M892.288 392.277c14.805 12.971 5.632 37.376-14.037 37.376h-175.275v234.667c0 11.776-9.557 21.333-21.333 21.333h-535.936c-11.776 0-21.333-9.557-21.333-21.333v-343.595c0-11.776 9.557-21.333 21.333-21.333h234.325v-147.072c0-9.088 5.717-16.683 13.696-19.797 0.171-0.085 0.427-0.043 0.597-0.128 2.219-0.768 4.523-1.408 7.040-1.408h0.213c0.085 0 0.128-0.043 0.171-0.043s0.085 0.043 0.128 0.043h476.373c19.712 0 28.885 24.405 14.037 37.376l-109.568 95.872c-9.728 8.491-9.728 23.595 0 32.128l109.568 95.915zM604.544 299.392l-181.504-109.269v109.269h181.504zM660.309 429.696v-87.595h-493.269v300.928h493.269v-213.333zM821.461 387.029l-66.859-58.496c-13.909-12.16-21.845-29.696-21.845-48.171s7.979-36.011 21.845-48.171l66.859-58.496h-343.040l215.893 130.005-0.128 0.299c5.163 3.883 8.747 9.771 8.747 16.768v66.261h118.528z" />
<glyph unicode="&#xe657;" d="M807.211 719.531c25.429 0 46.123-20.693 46.123-46.123v-424.619c0-25.429-20.693-46.123-46.123-46.123h-93.952v-121.216l-101.035 121.216h-395.435c-25.429 0-46.123 20.693-46.123 46.123v424.619c0 25.429 20.693 46.123 46.123 46.123h590.421zM807.211 762.197h-590.421c-49.024 0-88.789-39.765-88.789-88.789v-424.619c0-49.024 39.765-88.789 88.789-88.789h375.467l125.952-151.125c4.437-5.333 10.368-7.723 16.213-7.723 10.923 0 21.547 8.363 21.547 21.376v137.472h51.285c49.024 0 88.789 39.765 88.789 88.789v424.619c-0.043 49.024-39.808 88.789-88.832 88.789v0z" />
<glyph unicode="&#xe658;" d="M807.211 719.531c25.429 0 46.123-20.693 46.123-46.123v-424.619c0-25.429-20.693-46.123-46.123-46.123h-93.952v-121.216l-101.035 121.216h-395.435c-25.429 0-46.123 20.693-46.123 46.123v424.619c0 25.429 20.693 46.123 46.123 46.123h590.421zM807.211 762.197h-590.421c-49.024 0-88.789-39.765-88.789-88.789v-424.619c0-49.024 39.765-88.789 88.789-88.789h375.467l125.952-151.125c4.437-5.333 10.368-7.723 16.213-7.723 10.923 0 21.547 8.363 21.547 21.376v137.472h51.285c49.024 0 88.789 39.765 88.789 88.789v424.619c-0.043 49.024-39.808 88.789-88.832 88.789v0zM702.677 570.197h-381.355c-11.776 0-21.333 9.557-21.333 21.333s9.557 21.333 21.333 21.333h381.355c11.776 0 21.333-9.557 21.333-21.333s-9.557-21.333-21.333-21.333zM702.677 439.765h-381.355c-11.776 0-21.333 9.557-21.333 21.333s9.557 21.333 21.333 21.333h381.355c11.776 0 21.333-9.557 21.333-21.333s-9.557-21.333-21.333-21.333zM702.677 311.765h-381.355c-11.776 0-21.333 9.557-21.333 21.333s9.557 21.333 21.333 21.333h381.355c11.776 0 21.333-9.557 21.333-21.333s-9.557-21.333-21.333-21.333z" />
<glyph unicode="&#xe659;" d="M807.211 721.835c25.429 0 46.123-20.693 46.123-46.080v-424.619c0-25.429-20.693-46.123-46.123-46.123h-93.952v-121.216l-101.035 121.216h-395.435c-25.429 0-46.123 20.693-46.123 46.123v424.619c0 25.429 20.693 46.123 46.123 46.123h590.421zM807.211 764.501h-590.421c-49.024 0-88.789-39.723-88.789-88.747v-424.619c0-49.024 39.765-88.789 88.789-88.789h375.467l125.952-151.125c4.437-5.333 10.368-7.723 16.213-7.723 10.923 0 21.547 8.363 21.547 21.376v137.472h51.285c49.024 0 88.789 39.765 88.789 88.789v424.619c-0.043 49.024-39.808 88.747-88.832 88.747v0zM338.091 578.347h48l-75.349-221.013h-43.648l-74.752 221.013h49.323l48-167.808 48.427 167.808zM523.819 377.301c-13.781-17.024-34.731-25.557-62.848-25.557s-49.024 8.491-62.848 25.557c-13.781 17.024-20.651 37.504-20.651 61.483 0 23.552 6.869 43.989 20.651 61.269s34.731 25.899 62.848 25.899 49.024-8.619 62.848-25.899c13.781-17.28 20.693-37.717 20.693-61.269 0.043-23.936-6.869-44.459-20.693-61.483zM489.643 400.939c6.699 8.875 10.069 21.504 10.069 37.888s-3.371 28.971-10.069 37.803c-6.656 8.832-16.299 13.269-28.8 13.269-12.459 0-22.101-4.437-28.843-13.269s-10.112-21.419-10.112-37.803 3.371-29.013 10.112-37.888c6.741-8.875 16.384-13.312 28.843-13.312 12.501-0.043 22.101 4.437 28.8 13.312zM620.715 357.333h-45.909v221.013h45.909v-221.013zM812.245 452.992c-12.971-10.795-31.403-16.171-55.467-16.171h-45.995v-79.488h-45.867v221.013h94.891c21.888 0 39.339-5.675 52.352-17.067s19.541-29.056 19.541-52.949c-0.043-26.112-6.528-44.544-19.456-55.339zM777.003 532.608c-5.888 4.907-14.037 7.339-24.576 7.339h-41.643v-65.067h41.643c10.539 0 18.688 2.645 24.576 7.936 5.845 5.333 8.747 13.696 8.747 25.216 0 11.477-2.901 19.669-8.747 24.576z" />
<glyph unicode="&#xe65a;" d="M875.563 48.256l-282.027 282.027c37.76 44.587 60.629 102.229 60.629 165.205 0 141.397-114.603 256-256 256s-256-114.603-256-256 114.603-256 256-256c63.019 0 120.619 22.869 165.205 60.629l282.027-282.027c4.181-4.181 9.643-6.229 15.104-6.229s10.923 2.091 15.104 6.229c8.32 8.32 8.32 21.845-0.043 30.165zM184.832 495.488c0 117.632 95.701 213.333 213.333 213.333s213.333-95.701 213.333-213.333-95.701-213.333-213.333-213.333-213.333 95.701-213.333 213.333z" />
<glyph unicode="&#xe65b;" d="M512.299 433.621c-105.173 0-190.72 85.547-190.72 190.677s85.547 190.677 190.72 190.677c105.131 0 190.677-85.547 190.677-190.677s-85.547-190.677-190.677-190.677zM512.299 772.309c-81.621 0-148.053-66.389-148.053-148.011s66.432-148.011 148.053-148.011 148.011 66.389 148.011 148.011-66.389 148.011-148.011 148.011zM512-51.627c-101.632 0-337.963 8.491-337.963 87.125 0 225.195 201.685 330.112 337.963 330.112s337.963-104.917 337.963-330.112c0-78.677-236.331-87.125-337.963-87.125zM512 322.901c-92.501 0-295.296-72.363-295.296-287.445 7.083-14.805 101.248-44.416 295.296-44.416s288.213 29.653 295.467 45.483c-0.171 214.016-202.965 286.379-295.467 286.379z" />
<glyph unicode="&#xe65c;" d="M512.299 433.579c105.131 0 190.677 85.547 190.677 190.677s-85.547 190.677-190.677 190.677c-105.173 0-190.72-85.547-190.72-190.677s85.547-190.677 190.72-190.677zM512.299 772.309c81.621 0 148.011-66.389 148.011-148.011s-66.389-148.011-148.011-148.011-148.053 66.389-148.053 148.011 66.432 148.011 148.053 148.011zM580.437 357.248c0 0.128 0.043 0.299 0.043 0.427 0 24.192-11.861 53.035-68.48 53.035s-68.48-28.843-68.48-53.035c0-0.128 0.043-0.299 0.043-0.427-109.056-25.173-269.483-115.883-269.483-321.792 0-78.635 236.331-87.125 337.963-87.125s337.963 8.491 337.963 87.125c-0.043 205.909-160.469 296.619-269.568 321.792zM521.344 289.92l19.883-193.92-29.056-36.565-29.355 36.651 19.883 193.877c0.768-0.128 1.536 0.085 2.304 0 2.347-0.256 4.608-0.725 6.997-0.725s4.693 0.469 6.997 0.725c0.768 0.043 1.579-0.171 2.347-0.043zM512 368.085c25.813 0 25.813-5.504 25.813-10.368 0-3.157-0.768-6.101-1.792-8.917l-0.213-0.512c-1.92-4.864-5.376-8.491-9.472-10.965-0.213-0.171-0.427-0.213-0.64-0.341-8.277-4.693-19.2-4.693-27.477 0-0.213 0.128-0.427 0.213-0.64 0.341-4.096 2.475-7.509 6.101-9.472 10.965l-0.213 0.469c-1.067 2.816-1.792 5.76-1.792 8.917 0.085 4.864 0.085 10.411 25.899 10.411zM512-8.96c-194.048 0-288.213 29.653-295.296 44.459 0 181.76 144.939 260.523 240.683 281.131 0.256-0.341 0.597-0.555 0.896-0.896 1.195-1.536 2.389-3.115 3.755-4.523l-22.187-216.363c-0.811-7.637 1.536-15.445 6.229-21.12l43.605-54.443c5.547-6.869 13.739-10.795 22.571-10.795 8.917 0 17.195 4.011 22.699 10.965l43.136 54.315c4.779 6.016 6.955 13.483 6.187 21.035l-22.187 216.448c1.323 1.451 2.517 2.987 3.755 4.523 0.256 0.341 0.64 0.555 0.896 0.896 95.701-20.608 240.683-99.328 240.853-280.107-7.381-15.872-101.547-45.525-295.595-45.525z" />
<glyph unicode="&#xe65d;" d="M573.568 674.048l27.008-27.008c-24.235-49.323-15.872-110.72 25.088-151.68 24.917-24.917 58.069-38.656 93.355-38.656 20.565 0 40.405 4.651 58.368 13.525l26.965-26.965-353.963-353.963-27.008 27.008c24.235 49.323 15.872 110.72-25.088 151.68-24.917 24.917-58.069 38.656-93.355 38.656-20.565 0-40.448-4.693-58.368-13.525l-26.965 26.965 353.963 353.963zM512 280.363c27.051 0 52.523 10.539 71.637 29.653 39.509 39.509 39.509 103.765 0 143.275-19.115 19.157-44.587 29.696-71.637 29.696s-52.523-10.539-71.637-29.696c-39.509-39.509-39.509-103.765 0-143.275 19.115-19.115 44.587-29.653 71.637-29.653zM573.568 722.176c-7.552 0-15.104-2.901-20.864-8.619l-372.608-372.608c-11.52-11.52-11.52-30.165 0-41.685l61.568-61.525c0.043 0.043 0.043 0.085 0.085 0.128 17.451 17.451 40.32 26.155 63.189 26.155s45.739-8.704 63.189-26.155c34.901-34.901 34.901-91.477 0-126.379l-0.085-0.043 61.525-61.568c5.76-5.76 13.312-8.619 20.864-8.619s15.104 2.859 20.864 8.619l372.608 372.608c11.52 11.52 11.52 30.208 0 41.685l-61.611 61.483c0 0-0.043-0.085-0.085-0.128-17.451-17.451-40.32-26.155-63.189-26.155s-45.739 8.704-63.189 26.155c-34.901 34.901-34.901 91.477 0 126.379 0.043 0.043 0.085 0.043 0.128 0.085l-61.525 61.568c-5.76 5.717-13.312 8.619-20.864 8.619v0zM512 322.987c-15.019 0-30.037 5.717-41.472 17.195-22.912 22.912-22.912 60.032 0 82.944 11.435 11.435 26.453 17.152 41.472 17.195 15.019 0 30.037-5.717 41.472-17.195 22.912-22.912 22.912-60.032 0-82.944-11.435-11.435-26.453-17.195-41.472-17.195v0z" />
<glyph unicode="&#xe65e;" d="M573.397 674.048l26.965-26.965c-8.832-17.92-13.525-37.76-13.525-58.368 0-35.285 13.739-68.437 38.656-93.355s58.069-38.656 93.355-38.656c20.437 0 40.192 4.608 58.283 13.611l27.051-27.051-353.92-353.92-26.965 27.008c8.832 17.92 13.525 37.76 13.525 58.325 0 35.243-13.739 68.437-38.656 93.355s-58.069 38.656-93.355 38.656c-20.48 0-40.235-4.608-58.283-13.611l-27.051 27.051 353.92 353.92zM573.397 722.176c-7.552 0-15.104-2.901-20.864-8.619l-372.608-372.608c-11.52-11.52-11.52-30.165 0-41.685l61.525-61.525c0.043 0.043 0.043 0.085 0.085 0.128 17.451 17.451 40.32 26.155 63.189 26.155s45.739-8.704 63.189-26.155c34.901-34.901 34.901-91.477 0-126.379l-0.085-0.043 61.525-61.568c5.76-5.76 13.312-8.619 20.864-8.619s15.104 2.859 20.864 8.619l372.608 372.608c11.52 11.52 11.52 30.208 0 41.685l-61.568 61.483c0 0-0.043-0.085-0.085-0.128-17.451-17.451-40.32-26.155-63.189-26.155s-45.739 8.704-63.189 26.155c-34.901 34.901-34.901 91.477 0 126.379 0.043 0.043 0.085 0.043 0.128 0.085l-61.525 61.525c-5.76 5.76-13.312 8.661-20.864 8.661v0zM372.181 418.005l75.435 75.435c20.565 20.565 41.301 29.099 62.165 25.557 12.331-2.091 23.168-7.851 32.597-17.28 11.008-11.008 16.896-23.168 17.707-36.48 0.469-6.955-0.811-15.061-3.797-24.235 12.331 5.547 22.869 8.405 31.573 8.533 15.445 0.256 29.867-6.315 43.221-19.712 11.264-11.264 17.877-24.96 19.883-41.173 3.029-24.235-7.040-47.872-30.123-70.997l-74.197-74.197-174.464 174.549zM507.776 414.549c8.491 8.491 13.952 16.299 16.341 23.339 3.755 11.093 0.853 21.419-8.704 30.976-9.643 9.643-20.053 12.16-31.275 7.595-6.315-2.603-13.867-8.277-22.656-17.067l-35.968-35.968 45.611-45.611 36.651 36.736zM595.115 341.973c12.331 12.331 17.621 24.704 15.787 37.035-1.152 7.765-4.949 14.848-11.264 21.205-10.709 10.709-22.784 13.141-36.309 7.381-7.211-3.072-15.019-8.789-23.467-17.237l-39.979-39.979 51.84-51.84 43.392 43.435z" />
<glyph unicode="&#xe65f;" d="M573.568 674.048l26.965-26.965c-8.832-17.92-13.525-37.803-13.525-58.368 0-35.285 13.739-68.437 38.656-93.355s58.069-38.656 93.355-38.656c20.693 0 40.661 4.736 58.453 13.44l26.88-26.88-353.92-353.92-26.965 27.008c8.832 17.92 13.525 37.76 13.525 58.325 0 35.243-13.739 68.395-38.656 93.355-24.917 24.917-58.069 38.656-93.355 38.656-20.693 0-40.661-4.736-58.453-13.44l-26.88 26.88 353.92 353.92zM573.568 722.176c-7.552 0-15.104-2.901-20.864-8.619l-372.608-372.608c-11.52-11.52-11.52-30.165 0-41.685l61.525-61.525c0.043 0.043 0.043 0.085 0.085 0.128 17.451 17.451 40.32 26.155 63.189 26.155s45.739-8.704 63.189-26.155c34.901-34.901 34.901-91.477 0-126.379l-0.085-0.043 61.525-61.568c5.76-5.76 13.312-8.619 20.864-8.619s15.104 2.859 20.864 8.619l372.608 372.608c11.52 11.52 11.52 30.165 0 41.685l-61.568 61.483c0 0-0.043-0.085-0.085-0.128-17.451-17.451-40.32-26.155-63.189-26.155s-45.739 8.704-63.189 26.155c-34.901 34.901-34.901 91.477 0 126.379 0.043 0.043 0.085 0.043 0.128 0.085l-61.525 61.525c-5.76 5.76-13.312 8.661-20.864 8.661v0zM527.189 308.693c17.024-1.749 31.36 3.2 43.136 14.976 12.032 12.032 17.195 25.259 15.445 39.637-0.853 7.808-4.437 17.195-10.795 28.203l34.859 34.859c15.317-21.333 22.528-43.904 21.632-67.712-0.896-23.851-11.008-45.44-30.336-64.725-23.893-23.893-50.432-34.944-79.659-33.152-29.269 1.877-57.429 16.427-84.565 43.52-29.355 29.355-44.16 59.691-44.501 91.136-0.299 27.349 9.984 51.499 30.891 72.405 27.989 27.989 57.685 39.125 89.173 33.536 17.536-3.285 31.829-9.899 42.837-19.84l-35.115-35.115c-10.283 5.803-19.243 9.045-26.837 9.643-13.525 1.067-26.453-4.565-38.741-16.853-12.501-12.501-17.237-27.52-14.165-45.056s14.037-35.669 32.896-54.528 36.821-29.141 53.845-30.933z" />
<glyph unicode="&#xe660;" d="M665.856 40.832c-45.696 0-205.568 10.795-344.704 149.931-162.645 162.731-176 397.227-120.661 452.565l60.331 60.331c12.331 12.331 28.587 18.859 46.976 18.859 55.637 0 122.027-60.032 144.299-113.707 14.336-34.645 10.709-65.237-10.24-86.187l-60.331-60.331c-29.653-29.696 7.893-98.347 60.331-150.869 58.24-58.24 123.861-87.296 150.869-60.331l60.331 60.331c12.288 12.288 28.501 18.773 46.891 18.773 55.765 0 122.197-59.989 144.469-113.664 14.293-34.603 10.667-65.195-10.325-86.187l-60.331-60.331c-18.645-18.517-57.984-29.184-107.904-29.184zM307.797 679.851c-7.125 0-12.459-2.005-16.811-6.357l-60.331-60.331c-28.075-28.117-39.424-232.064 120.661-392.235 101.333-101.333 228.907-137.429 314.539-137.429 41.813 0 69.589 8.704 77.653 16.768l60.331 60.331c10.197 10.24 6.229 27.221 1.024 39.68-21.589 52.181-96.811 105.984-121.728 80.981l-60.331-60.331c-15.061-15.061-34.901-22.997-57.515-22.997-65.323 0-134.187 63.787-153.728 83.328-62.635 62.635-115.968 155.563-60.331 211.2l60.331 60.331c10.155 10.155 6.187 27.179 0.981 39.68-17.792 43.264-70.699 87.381-104.747 87.381z" />
<glyph unicode="&#xe661;" d="M512 768l-332.544-192v-384l332.544-192 332.544 192v384l-332.544 192zM512 408.619l-80.768 46.635 258.688 160.768 90.667-52.352-268.587-155.051zM351.445 452.053l13.952-8.064v-90.581l-13.952 8.875v89.771zM371.456 489.771l252.501 158.464 19.541-10.837-254.165-157.952-17.877 10.325zM587.008 675.413l-257.323-161.536-86.229 49.792 268.544 155.051 75.008-43.307zM222.123 526.72l86.699-50.048v-137.899l99.285-62.848v143.445l82.603-47.659v-310.101l-268.544 155.051v310.059zM533.333 61.568v310.101l268.544 155.051v-310.101l-268.544-155.051z" />
<glyph unicode="&#xe662;" d="M723.797 764.843v-766.336h-425.685v766.336h425.685zM729.301 807.509h-436.693c-20.523 0-37.12-16.64-37.12-37.12v-777.387c0-20.523 16.64-37.163 37.12-37.163h436.736c20.523 0 37.12 16.64 37.12 37.163v777.387c0 20.48-16.64 37.12-37.163 37.12v0zM638.464 681.173v-426.667h-255.019v426.667h255.019zM657.621 723.84h-293.333c-12.971 0-23.509-10.539-23.509-23.509v-464.981c0-12.971 10.539-23.509 23.509-23.509h293.333c12.971 0 23.509 10.539 23.509 23.509v464.981c0 13.013-10.539 23.509-23.509 23.509v0zM510.464 126.507c17.365 0 31.445-14.123 31.445-31.445s-14.123-31.445-31.445-31.445-31.445 14.123-31.445 31.445 14.080 31.445 31.445 31.445zM510.464 169.173c-40.96 0-74.112-33.195-74.112-74.112s33.195-74.112 74.112-74.112 74.112 33.195 74.112 74.112-33.195 74.112-74.112 74.112v0z" />
<glyph unicode="&#xe663;" d="M894.421 721.365h-764.843c-23.637 0-42.795-19.157-42.795-42.795v-593.835c0-23.637 19.157-42.795 42.795-42.795h764.8c23.637 0 42.795 19.157 42.795 42.795v593.835c0.043 23.637-19.157 42.795-42.752 42.795zM894.421 105.941c0-11.776-9.557-21.333-21.333-21.333h-722.176c-11.776 0-21.333 9.557-21.333 21.333v551.424c0 11.776 9.557 21.333 21.333 21.333h722.133c11.776 0 21.333-9.557 21.333-21.333v-551.424zM512 378.795c-4.181 0-8.32 1.195-11.904 3.627l-322.005 217.344c-9.771 6.613-12.373 19.84-5.76 29.611s19.968 12.245 29.568 5.76l310.101-209.28 310.101 209.28c9.685 6.528 22.955 4.053 29.568-5.76 6.613-9.771 4.053-23.040-5.76-29.611l-322.005-217.344c-3.584-2.432-7.723-3.627-11.904-3.627z" />
<glyph unicode="&#xe664;" d="M850.304 576.555c-5.973 10.24-19.072 13.696-29.141 7.765l-303.701-175.659-157.952 169.088c-7.936 8.619-21.461 9.131-30.165 1.067-4.267-3.968-6.485-9.301-6.699-14.677-0.128-2.731 0.299-5.504 1.237-8.107 0.939-2.688 2.389-5.205 4.437-7.424l169.429-181.504c0.085-0.128 0.256-0.128 0.341-0.256 4.096-4.224 9.6-6.571 15.275-6.571 3.669 0 7.339 0.939 10.667 2.859l318.464 184.235c10.197 5.931 13.696 18.987 7.808 29.184zM928.043 631.040c-7.936 11.691-21.376 18.389-36.949 18.389h-780.928c-11.776 0-21.333-9.557-21.333-21.333s9.557-21.333 21.333-21.333l766.677 0.811c7.509 0 12.715-7.296 9.941-14.251-29.653-74.667-165.632-416.512-165.632-416.512-4.565-11.435-18.517-20.267-27.392-20.267l-559.488-0.853c-0.043 0-0.427 1.664 0.981 5.248l26.368 65.877h-45.909l-20.011-50.005c-6.4-16-5.333-32.213 2.987-44.544 7.893-11.691 21.376-18.389 36.992-18.389h558.080c27.435 0 56.192 20.224 66.944 47.104l170.283 425.557c6.485 15.957 5.376 32.171-2.944 44.501zM279.723 440.107h-169.557c-11.776 0-21.333 9.557-21.333 21.333s9.557 21.333 21.333 21.333h169.6c11.776 0 21.333-9.557 21.333-21.333s-9.557-21.333-21.376-21.333zM206.507 269.44h-96.341c-11.776 0-21.333 9.557-21.333 21.333s9.557 21.333 21.333 21.333h96.341c11.776 0 21.333-9.557 21.333-21.333s-9.557-21.333-21.333-21.333z" />
<glyph unicode="&#xe665;" d="M554.155-26.88h-85.333c-11.776 0-21.333 9.557-21.333 21.333v63.616c-103.424 21.163-166.997 86.101-169.813 88.96-8.021 8.363-7.936 21.675 0.299 29.909l71.893 71.851c7.851 7.893 20.352 8.363 28.843 1.237 6.016-5.035 32.939-26.837 68.821-42.069v124.331c-60.971 25.216-155.989 71.765-155.989 185.685 0 86.187 61.952 157.867 155.947 182.784v67.456c0 11.776 9.557 21.333 21.333 21.333h85.333c11.776 0 21.333-9.557 21.333-21.333v-62.293c97.749-16.981 167.68-88.107 170.795-91.307 8.064-8.363 8.021-21.717-0.256-29.952l-69.12-69.12c-8.107-8.107-20.949-8.32-29.483-0.683-0.341 0.341-31.104 28.075-71.936 43.861v-122.411c74.923-29.099 168.021-71.296 168.021-183.552 0-98.859-66.731-175.701-168.021-196.139v-62.165c0-11.776-9.515-21.333-21.333-21.333zM490.155 15.787h42.667v58.923c0 10.709 7.979 19.797 18.645 21.163 89.387 11.477 149.419 74.539 149.419 156.843 0 83.243-66.859 115.499-154.325 148.992-8.235 3.157-13.696 11.093-13.696 19.925v165.717c0 6.443 2.901 12.501 7.936 16.597 4.949 4.053 11.52 5.675 17.835 4.309 43.904-9.301 81.536-33.664 101.76-48.896l39.68 39.637c-25.899 21.547-81.451 60.843-147.84 67.072-10.965 1.024-19.328 10.24-19.328 21.248v59.563h-42.667v-63.104c0-10.197-7.211-18.944-17.195-20.949-84.395-16.512-138.837-73.387-138.837-144.853 0-86.656 70.443-122.411 142.635-151.637 8.021-3.243 13.312-11.093 13.312-19.755v-168.704c0-6.656-3.072-12.928-8.363-16.939s-12.203-5.333-18.603-3.627c-41.472 11.349-76.331 33.237-96.555 48l-42.496-42.539c24.747-19.925 77.312-55.424 147.755-65.707 10.453-1.536 18.261-10.539 18.261-21.12v-60.16zM554.155 155.904c-4.437 0-8.789 1.365-12.459 4.011-5.589 4.011-8.875 10.453-8.875 17.323v133.419c0 7.424 3.84 14.293 10.155 18.176s14.208 4.181 20.779 0.896c28.501-14.421 66.432-38.784 66.432-83.157 0-41.557-25.856-75.008-69.248-89.557-2.176-0.768-4.48-1.109-6.784-1.109zM575.488 271.317v-56.576c6.955 7.595 12.032 17.877 12.032 31.829 0 7.040-1.92 15.147-12.032 24.747zM468.821 437.76c-3.797 0-7.595 1.024-10.965 3.029-35.712 21.376-53.035 47.189-53.035 78.976 0 35.243 20.181 64.469 55.339 80.085 6.485 2.944 14.208 2.347 20.309-1.579 6.059-3.925 9.728-10.667 9.728-17.877v-121.259c0-7.68-4.139-14.763-10.795-18.56-3.328-1.877-6.955-2.816-10.581-2.816z" />
<glyph unicode="&#xe666;" d="M380.331 507.947l216.32-216.32-20.864-15.787-4.352 4.352c-8.235 8.235-19.157 12.501-30.165 12.501-8.235 0-16.512-2.389-23.765-7.253l-124.203-83.328c-10.581-7.125-17.451-18.603-18.688-31.275-1.237-12.715 3.285-25.301 12.288-34.304l57.643-57.643-17.493-17.493-69.632 69.589c-8.277 8.277-19.2 12.501-30.165 12.501-8.789 0-17.664-2.731-25.216-8.277l-29.952-21.973c-0.128-0.085-0.299-0.213-0.427-0.299l-69.973 69.973c0.341 0.427 0.64 0.896 0.981 1.323l169.941 245.205c11.733 16.939 9.685 39.893-4.907 54.485l-3.157 3.157 15.787 20.864zM375.125 571.819l-67.029-88.661 29.397-29.397-169.941-245.205-25.941-25.941 129.749-129.707 25.941 25.941 29.952 21.973 99.797-99.797 77.824 77.824-78.635 78.635c-4.736 4.736-3.968 12.672 1.579 16.384l113.451 76.117 30.635-30.635 88.661 67.029-285.44 285.44zM629.973 517.675c-5.717 0-11.435 2.261-15.573 6.784-8.021 8.619-7.595 22.101 1.024 30.165l88.235 82.304c8.576 8.021 22.144 7.595 30.123-1.067 8.021-8.619 7.595-22.101-1.024-30.165l-88.235-82.304c-4.096-3.84-9.344-5.717-14.549-5.717zM453.205 620.928c-3.755 0-7.552 0.981-11.008 3.072-10.069 6.059-13.312 19.157-7.296 29.269l62.208 103.381c6.101 10.112 19.2 13.312 29.312 7.253 10.069-6.059 13.312-19.157 7.296-29.269l-62.208-103.381c-4.011-6.613-11.093-10.325-18.304-10.325zM754.261 370.347c-7.68 0-15.061 4.139-18.859 11.392-5.504 10.453-1.493 23.339 8.96 28.8l106.795 56.192c10.368 5.419 23.296 1.493 28.8-8.917s1.493-23.339-8.96-28.8l-106.795-56.192c-3.2-1.707-6.571-2.475-9.941-2.475z" />
<glyph unicode="&#xe667;" d="M894.421 553.515c23.637 0 42.795 19.157 42.795 42.795v81.963c0 23.637-19.157 42.795-42.795 42.795h-85.589c-0.512 0-0.981 0.299-1.493 0.299h-39.168c-0.555 0-0.981-0.299-1.493-0.299h-509.312c-0.512 0-0.981 0.299-1.493 0.299h-39.168c-0.555 0-0.981-0.299-1.493-0.299h-85.632c-23.637 0-42.795-19.157-42.795-42.795v-81.963c0-23.637 19.157-42.795 42.795-42.795h44.331v-213.205h-45.909v-174.592c-22.827-0.896-41.216-19.413-41.216-42.453v-39.168c0-23.637 19.157-42.795 42.795-42.795h764.8c23.637 0 42.795 19.157 42.795 42.795v39.168c0 23.637-19.157 42.795-42.795 42.795h-44.331v387.456h44.373zM170.667 297.643h213.333v-128h-213.333v128zM512 276.309h-13.099l28.459 85.333h54.571l28.459-85.333h-13.056c-11.776 0-21.333-9.557-21.333-21.333v-85.333c0-1.28 0.512-2.389 0.725-3.627h-44.117c0.213 1.237 0.725 2.347 0.725 3.627v85.333c0 11.819-9.557 21.333-21.333 21.333zM129.579 123.392l764.971-0.128-0.128-39.296-764.971 0.128 0.128 39.296zM725.333 166.059h-107.392c0.213 1.237 0.725 2.347 0.725 3.627v64h21.333c6.869 0 13.312 3.285 17.28 8.875 4.053 5.547 5.12 12.715 2.944 19.243l-42.667 128c-2.901 8.704-11.093 14.592-20.267 14.592h-85.333c-9.173 0-17.323-5.888-20.267-14.592l-42.667-128c-2.176-6.485-1.067-13.653 2.944-19.243 4.011-5.547 10.411-8.875 17.28-8.875h21.333v-64c0-1.28 0.512-2.389 0.725-3.627h-64.64v174.293h-128v213.163h426.667v-387.456zM807.424 596.181v-430.165h-39.424v430.165h-512v-255.872h-39.424v255.872h-42.667l-44.459 0.128 0.128 82.091 87.296 0.043 4.48 0.256h28.757l1.024-0.299 643.371-0.128-0.128-82.091h-86.955zM618.667 468.309c0 35.285-28.715 64-64 64s-64-28.715-64-64 28.715-64 64-64 64 28.715 64 64zM554.667 446.976c-11.733 0-21.333 9.557-21.333 21.333s9.6 21.333 21.333 21.333 21.333-9.557 21.333-21.333-9.6-21.333-21.333-21.333z" />
<glyph unicode="&#xe668;" d="M512 768c-212.096 0-384-171.947-384-384 0-212.096 171.904-384 384-384s384 171.904 384 384c0 212.053-171.904 384-384 384zM512 42.667c-188.203 0-341.333 153.131-341.333 341.333s153.131 341.333 341.333 341.333 341.333-153.131 341.333-341.333c0-188.203-153.131-341.333-341.333-341.333zM726.315 549.035l-76.331-20.565c-9.515-2.56-12.672-14.464-5.717-21.419l12.885-12.843-150.955-151.467-89.557 90.581 12.928 12.8c6.997 6.912 3.883 18.859-5.632 21.461l-76.16 20.864c-9.515 2.603-18.261-6.059-15.787-15.616l20.011-76.459c2.517-9.515 14.379-12.8 21.376-5.845l12.928 12.8 104.064-105.259c4.181-4.224 9.685-6.315 15.147-6.315 0.213 0 0.384 0.128 0.597 0.128s0.384-0.128 0.597-0.128c5.461 0 10.965 2.091 15.104 6.272l165.504 166.059 12.885-12.843c6.997-6.955 18.859-3.755 21.419 5.76l20.309 76.373c2.603 9.515-6.101 18.219-15.616 15.659z" />
<glyph unicode="&#xe669;" d="M853.333 704h-682.667c-23.552 0-42.667-19.115-42.667-42.667v-618.667c0-23.552 19.115-42.667 42.667-42.667h682.667c23.552 0 42.667 19.115 42.667 42.667v618.667c0 23.552-19.115 42.667-42.667 42.667zM810.667 618.667c0-23.552-19.115-42.667-42.667-42.667s-42.667 19.115-42.667 42.667 19.115 42.667 42.667 42.667 42.667-19.115 42.667-42.667zM298.667 618.667c0-23.552-19.115-42.667-42.667-42.667s-42.667 19.115-42.667 42.667 19.115 42.667 42.667 42.667 42.667-19.115 42.667-42.667zM832 42.667h-640c-11.776 0-21.333 9.557-21.333 21.333v448c0 11.776 9.557 21.333 21.333 21.333h640c11.776 0 21.333-9.557 21.333-21.333v-448c0-11.776-9.557-21.333-21.333-21.333zM256 597.333c-11.776 0-21.333 9.557-21.333 21.333v128c0 11.776 9.557 21.333 21.333 21.333s21.333-9.557 21.333-21.333v-128c0-11.776-9.557-21.333-21.333-21.333zM768 597.333c-11.776 0-21.333 9.557-21.333 21.333v128c0 11.776 9.557 21.333 21.333 21.333s21.333-9.557 21.333-21.333v-128c0-11.776-9.557-21.333-21.333-21.333z" />
<glyph unicode="&#xe66a;" d="M512 768c117.632 0 213.333-95.701 213.333-213.333 0-84.267-116.693-329.045-213.333-508.715-96.64 179.627-213.333 424.405-213.333 508.715 0 117.632 95.701 213.333 213.333 213.333zM512 426.667c70.571 0 128 57.429 128 128s-57.429 128-128 128-128-57.429-128-128 57.429-128 128-128zM512 810.667c-141.397 0-256-114.603-256-256s256-597.333 256-597.333 256 455.936 256 597.333-114.603 256-256 256v0zM512 469.333c-47.147 0-85.333 38.187-85.333 85.333s38.187 85.333 85.333 85.333 85.333-38.187 85.333-85.333-38.187-85.333-85.333-85.333v0z" />
<glyph unicode="&#xe66b;" d="M730.368 682.667h-132.523v128h-170.667v-128h-133.547c-20.523 0-37.12-16.64-37.12-37.12v-651.051c0-20.523 16.64-37.163 37.12-37.163h436.736c20.523 0 37.12 16.64 37.12 37.163v651.051c0 20.48-16.597 37.12-37.12 37.12zM724.821 0h-425.643v640h128v-42.667h-19.2c-12.971 0-23.467-10.539-23.467-23.509v-81.024c0-12.971 10.496-23.467 23.467-23.467h208c12.971 0 23.509 10.539 23.509 23.509v80.981c0 12.971-10.496 23.509-23.467 23.509h-18.176v42.667h127.019v-640zM596.821 554.667v-42.667h-169.685v42.667h169.685zM341.845 317.824v-253.312c0-12.971 10.539-23.509 23.509-23.509h293.333c12.971 0 23.509 10.539 23.509 23.509v253.312c0 12.971-10.539 23.509-23.509 23.509h-293.376c-12.971 0-23.467-10.539-23.467-23.509zM384.512 298.667h255.019v-214.997h-255.019v214.997z" />
<glyph unicode="&#xe66c;" d="M851.925 725.419h-679.851c-23.68 0-42.837-19.2-42.837-42.837v-426.496c0-23.68 19.2-42.837 42.837-42.837h679.893c23.68 0 42.837 19.2 42.837 42.837v426.496c0 23.68-19.2 42.837-42.88 42.837zM830.635 255.915l-637.44 0.171c-11.776 0-21.333 9.557-21.333 21.333l0.171 384.043c0 11.776 9.557 21.333 21.333 21.333l637.227-0.171c11.776 0 21.333-9.557 21.333-21.333v-384c0.043-11.861-9.515-21.376-21.291-21.376zM553.472 213.248v-42.197h-85.333v42.197h85.333zM596.139 255.915h-170.667v-127.531h170.667v127.531zM565.419 127.403l14.123-42.197h-137.472l14.123 42.197h109.227zM596.139 170.069h-170.667l-42.667-127.531h256l-42.667 127.531z" />
<glyph unicode="&#xe66d;" d="M896 725.333h-85.333c-23.552 0-42.667-19.115-42.667-42.667v-597.333c0-23.552 19.115-42.667 42.667-42.667h85.333c23.552 0 42.667 19.115 42.667 42.667v597.333c0 23.552-19.115 42.667-42.667 42.667zM896 106.667c0-11.776-9.557-21.333-21.333-21.333h-42.667c-11.776 0-21.333 9.557-21.333 21.333v554.667c0 11.776 9.557 21.333 21.333 21.333h42.667c11.776 0 21.333-9.557 21.333-21.333v-554.667zM668.459 597.333h-85.333c-23.552 0-42.667-19.115-42.667-42.667v-469.333c0-23.552 19.115-42.667 42.667-42.667h85.333c23.552 0 42.667 19.115 42.667 42.667v469.333c0 23.552-19.115 42.667-42.667 42.667zM668.459 106.667c0-11.776-9.557-21.333-21.333-21.333h-42.667c-11.776 0-21.333 9.557-21.333 21.333v426.667c0 11.776 9.557 21.333 21.333 21.333h42.667c11.776 0 21.333-9.557 21.333-21.333v-426.667zM440.875 637.355h-85.333c-23.552 0-42.667-19.115-42.667-42.667v-509.355c0-23.552 19.115-42.667 42.667-42.667h85.333c23.552 0 42.667 19.115 42.667 42.667v509.355c0 23.552-19.072 42.667-42.667 42.667zM440.875 106.667c0-11.776-9.557-21.333-21.333-21.333h-42.667c-11.776 0-21.333 9.557-21.333 21.333v466.688c0 11.776 9.557 21.333 21.333 21.333h42.667c11.776 0 21.333-9.557 21.333-21.333v-466.688zM213.333 426.667h-85.333c-23.552 0-42.667-19.115-42.667-42.667v-298.667c0-23.552 19.115-42.667 42.667-42.667h85.333c23.552 0 42.667 19.115 42.667 42.667v298.667c0 23.552-19.115 42.667-42.667 42.667zM213.333 106.667c0-11.776-9.557-21.333-21.333-21.333h-42.667c-11.776 0-21.333 9.557-21.333 21.333v256c0 11.776 9.557 21.333 21.333 21.333h42.667c11.776 0 21.333-9.557 21.333-21.333v-256z" />
<glyph unicode="&#xe66e;" d="M575.189 699.648c130.347-18.944 233.771-122.496 252.501-252.885h-252.501v252.885zM532.523 745.387v-341.291h340.907c0 188.373-152.619 341.077-340.907 341.291v0zM449.707 659.627v-338.347h337.835c-20.779-144.555-145.408-256-295.637-256-164.693 0-298.667 133.973-298.667 298.667 0 150.315 111.701 275.072 256.469 295.68zM491.904 705.237c-188.501 0-341.333-152.789-341.333-341.333 0-188.501 152.832-341.333 341.333-341.333s341.333 152.832 341.333 341.333h-340.907v341.333c-0.128 0-0.256 0-0.427 0v0z" />
</font>
</defs>
</svg>
